<svg width="64" height="44" viewBox="0 0 64 44" fill="none" xmlns="http://www.w3.org/2000/svg">
<path d="M58.1236 0.0307617H5.88918C2.65013 0.0307617 0 2.68089 0 5.93274V38.08C0 41.319 2.65013 43.9691 5.88918 43.9691H58.1108C61.3627 43.9691 64 41.319 64 38.08V5.93274C64 2.68089 61.3499 0.0435646 58.1108 0.0435646L58.1236 0.0307617ZM60.3385 38.0672C60.3385 39.2834 59.3527 40.282 58.1236 40.282H5.88918C4.67293 40.282 3.67433 39.2962 3.67433 38.0672V5.91994C3.67433 4.7037 4.66013 3.7051 5.88918 3.7051H58.1108C59.3271 3.7051 60.3257 4.69089 60.3257 5.91994V38.0672H60.3385Z" fill="currentColor"/>
<path d="M53.0538 10.5544H36.1288C35.3095 10.5544 34.6566 11.2202 34.6566 12.0267C34.6566 12.8333 35.3223 13.499 36.1288 13.499H53.0538C53.8732 13.499 54.5261 12.8333 54.5261 12.0267C54.5261 11.2202 53.8604 10.5544 53.0538 10.5544Z" fill="currentColor"/>
<path d="M53.0538 30.501H36.1288C35.3095 30.501 34.6566 31.1667 34.6566 31.9733C34.6566 32.7798 35.3223 33.4456 36.1288 33.4456H53.0538C53.8732 33.4456 54.5261 32.7798 54.5261 31.9733C54.5261 31.1667 53.8604 30.501 53.0538 30.501Z" fill="currentColor"/>
<path d="M53.0537 19.0681H42.8117C41.9923 19.0681 41.3394 19.7339 41.3394 20.5404C41.3394 21.347 42.0051 22.0127 42.8117 22.0127H53.0537C53.8731 22.0127 54.526 21.347 54.526 20.5404C54.526 19.7339 53.8603 19.0681 53.0537 19.0681Z" fill="currentColor"/>
<path d="M53.0537 24.791H42.8117C41.9923 24.791 41.3394 25.4567 41.3394 26.2633C41.3394 27.0699 42.0051 27.7356 42.8117 27.7356H53.0537C53.8731 27.7356 54.526 27.0699 54.526 26.2633C54.526 25.4567 53.8603 24.791 53.0537 24.791Z" fill="currentColor"/>
<path d="M20.9194 22.6914C25.0931 22.6914 28.4985 19.2988 28.4985 15.1123C28.4985 10.9259 25.1059 7.5332 20.9194 7.5332C16.733 7.5332 13.3403 10.9259 13.3403 15.1123C13.3403 19.2988 16.733 22.6914 20.9194 22.6914ZM20.9194 11.2203C23.0703 11.2203 24.8114 12.9615 24.8114 15.1123C24.8114 17.2631 23.0703 19.0043 20.9194 19.0043C18.7686 19.0043 17.0275 17.2631 17.0275 15.1123C17.0275 12.9615 18.7686 11.2203 20.9194 11.2203Z" fill="currentColor"/>
<path d="M23.8385 24.0483H18.0261C13.9549 24.0483 10.6391 27.3642 10.6391 31.4354V34.6233C10.6391 35.6347 11.4584 36.4668 12.4826 36.4668C13.5068 36.4668 14.3262 35.6475 14.3262 34.6233V31.4354C14.3262 29.387 15.9905 27.7355 18.0261 27.7355H23.8385C25.8869 27.7355 27.5384 29.3998 27.5384 31.4354V34.6233C27.5384 35.6347 28.3578 36.4668 29.382 36.4668C30.4062 36.4668 31.2256 35.6475 31.2256 34.6233V31.4354C31.2256 27.3642 27.9097 24.0483 23.8385 24.0483Z" fill="currentColor"/>
</svg>
