<svg width="54" height="67" viewBox="0 0 54 67" fill="none" xmlns="http://www.w3.org/2000/svg">
<path d="M13.4073 11.3961C13.1623 11.2883 12.8683 11.2393 12.5351 11.2393H10.8201C10.8201 11.2393 10.7417 11.2491 10.7123 11.2883C10.6829 11.3177 10.6633 11.3569 10.6633 11.4059V15.5709C10.6633 15.5709 10.6829 15.6493 10.7123 15.6787C10.7417 15.7081 10.7809 15.7277 10.8201 15.7277H11.4277C11.4277 15.7277 11.5159 15.7179 11.5355 15.6787C11.5649 15.6493 11.5747 15.6101 11.5747 15.5709V14.0715H12.5253C12.8585 14.0715 13.1525 14.0225 13.3975 13.9147C13.6425 13.8167 13.8385 13.6599 13.9757 13.4541C14.1129 13.2483 14.1815 12.9837 14.1815 12.6603C14.1815 12.3369 14.1129 12.0821 13.9757 11.8665C13.8385 11.6509 13.6425 11.4941 13.3975 11.3961H13.4073ZM13.0741 13.1797C12.9369 13.2973 12.7507 13.3561 12.5057 13.3561H11.5747V11.9449H12.5057C12.7703 11.9449 12.9663 12.0135 13.0839 12.1409C13.2113 12.2683 13.2701 12.4447 13.2701 12.6603C13.2701 12.8955 13.2015 13.0621 13.0741 13.1797Z" fill="currentColor"/>
<path d="M17.5725 15.6003C17.5725 15.6003 17.6019 15.6493 17.6313 15.6787C17.6607 15.7081 17.6999 15.7179 17.7587 15.7179H18.3173C18.3173 15.7179 18.3859 15.7081 18.4055 15.6787C18.4349 15.6493 18.4447 15.6199 18.4447 15.5807C18.4447 15.5611 18.4447 15.5415 18.4447 15.5219L16.9061 11.3961C16.9061 11.3961 16.8669 11.3177 16.8277 11.2883C16.7885 11.2589 16.7493 11.2393 16.6807 11.2393H15.9849C15.9163 11.2393 15.8673 11.2589 15.8379 11.2883C15.8085 11.3177 15.7791 11.3569 15.7595 11.3961L14.2209 15.5219C14.2209 15.5219 14.2111 15.5611 14.2111 15.5807C14.2111 15.6199 14.2209 15.6493 14.2503 15.6787C14.2797 15.7081 14.3091 15.7179 14.3385 15.7179H14.8971C14.9559 15.7179 15.0049 15.7081 15.0245 15.6787C15.0539 15.6493 15.0735 15.6199 15.0833 15.6003L15.3871 14.8163H17.2883L17.5921 15.6003H17.5725ZM15.5929 14.0813L16.3181 12.1017L17.0433 14.0813H15.5929Z" fill="currentColor"/>
<path d="M19.5325 15.61C19.7971 15.7276 20.1303 15.7864 20.5321 15.7864C20.8947 15.7864 21.2083 15.7374 21.4827 15.6296C21.7571 15.5218 21.9727 15.3748 22.1197 15.169C22.2667 14.9632 22.3451 14.728 22.3451 14.4536C22.3451 14.1988 22.2961 13.993 22.1883 13.8264C22.0805 13.6598 21.9139 13.5226 21.6787 13.4246C21.4533 13.3168 21.1495 13.2286 20.7869 13.1404C20.5321 13.0718 20.3263 13.0032 20.1695 12.9444C20.0127 12.8856 19.9049 12.817 19.8265 12.7386C19.7579 12.6602 19.7187 12.5622 19.7187 12.4446C19.7187 12.2682 19.7873 12.131 19.9343 12.0526C20.0715 11.9644 20.2577 11.9252 20.4929 11.9252C20.7281 11.9252 20.8947 11.9742 21.0417 12.0624C21.1789 12.1604 21.2671 12.2682 21.2867 12.4054C21.3063 12.4544 21.3357 12.4838 21.3651 12.5034C21.3945 12.523 21.4337 12.5328 21.4631 12.5328H22.0609C22.0609 12.5328 22.1393 12.523 22.1589 12.4936C22.1785 12.4642 22.1981 12.4348 22.1981 12.4054C22.1981 12.278 22.1589 12.1408 22.0805 11.9938C22.0021 11.8566 21.8943 11.7292 21.7571 11.6018C21.6199 11.4842 21.4435 11.3862 21.2279 11.3078C21.0123 11.2294 20.7673 11.2 20.4929 11.2C20.1499 11.2 19.8461 11.2588 19.6011 11.3666C19.3561 11.4744 19.1601 11.6312 19.0229 11.8174C18.8857 12.0134 18.8171 12.229 18.8171 12.474C18.8171 12.719 18.8759 12.9444 18.9837 13.111C19.0915 13.2776 19.2581 13.4148 19.4737 13.5226C19.6893 13.6304 19.9539 13.7284 20.2773 13.797C20.5517 13.8656 20.7771 13.9342 20.9437 13.993C21.1103 14.0518 21.2377 14.1204 21.3161 14.1988C21.3945 14.2772 21.4337 14.3752 21.4337 14.4928C21.4337 14.6692 21.3553 14.8064 21.2083 14.9044C21.0613 15.0024 20.8261 15.0612 20.5223 15.0612C20.3263 15.0612 20.1695 15.0318 20.0421 14.9828C19.9147 14.9338 19.8167 14.8652 19.7481 14.7868C19.6795 14.7084 19.6305 14.63 19.6011 14.5516C19.5815 14.5124 19.5521 14.4928 19.5227 14.4634C19.4933 14.434 19.4541 14.4242 19.3953 14.4242H18.8269C18.8269 14.4242 18.7583 14.434 18.7289 14.4634C18.6995 14.4928 18.6897 14.5222 18.6897 14.5614C18.6897 14.7672 18.7681 14.973 18.9151 15.1592C19.0621 15.3454 19.2581 15.5022 19.5227 15.6198L19.5325 15.61Z" fill="currentColor"/>
<path d="M23.6385 15.61C23.9031 15.7276 24.2363 15.7864 24.6381 15.7864C25.0007 15.7864 25.3143 15.7374 25.5887 15.6296C25.8631 15.5218 26.0787 15.3748 26.2257 15.169C26.3727 14.9632 26.4511 14.728 26.4511 14.4536C26.4511 14.1988 26.4021 13.993 26.2943 13.8264C26.1865 13.6598 26.0199 13.5226 25.7847 13.4246C25.5593 13.3168 25.2555 13.2286 24.8929 13.1404C24.6381 13.0718 24.4323 13.0032 24.2755 12.9444C24.1187 12.8856 24.0109 12.817 23.9325 12.7386C23.8639 12.6602 23.8247 12.5622 23.8247 12.4446C23.8247 12.2682 23.8933 12.131 24.0403 12.0526C24.1775 11.9644 24.3637 11.9252 24.5989 11.9252C24.8341 11.9252 25.0006 11.9742 25.1476 12.0624C25.2848 12.1604 25.373 12.2682 25.3926 12.4054C25.4122 12.4544 25.4417 12.4838 25.4711 12.5034C25.5005 12.523 25.5397 12.5328 25.5691 12.5328H26.1669C26.1669 12.5328 26.2453 12.523 26.2649 12.4936C26.2845 12.4642 26.3041 12.4348 26.3041 12.4054C26.3041 12.278 26.2649 12.1408 26.1865 11.9938C26.1081 11.8566 26.0003 11.7292 25.8631 11.6018C25.7259 11.4842 25.5495 11.3862 25.3339 11.3078C25.1183 11.2294 24.8733 11.2 24.5989 11.2C24.2559 11.2 23.9521 11.2588 23.7071 11.3666C23.4621 11.4744 23.2661 11.6312 23.1289 11.8174C22.9917 12.0134 22.9231 12.229 22.9231 12.474C22.9231 12.719 22.9819 12.9444 23.0897 13.111C23.1975 13.2776 23.3641 13.4148 23.5797 13.5226C23.7953 13.6304 24.0598 13.7284 24.3832 13.797C24.6576 13.8656 24.8831 13.9342 25.0497 13.993C25.2163 14.0518 25.3437 14.1204 25.4221 14.1988C25.5005 14.2772 25.5397 14.3752 25.5397 14.4928C25.5397 14.6692 25.4613 14.8064 25.3143 14.9044C25.1673 15.0024 24.932 15.0612 24.6282 15.0612C24.4322 15.0612 24.2755 15.0318 24.1481 14.9828C24.0207 14.9338 23.9227 14.8652 23.8541 14.7868C23.7855 14.7084 23.7365 14.63 23.7071 14.5516C23.6875 14.5124 23.6581 14.4928 23.6287 14.4634C23.5993 14.434 23.5601 14.4242 23.5013 14.4242H22.9329C22.9329 14.4242 22.8643 14.434 22.8349 14.4634C22.8055 14.4928 22.7957 14.5222 22.7957 14.5614C22.7957 14.7672 22.8741 14.973 23.0211 15.1592C23.1681 15.3454 23.3641 15.5022 23.6287 15.6198L23.6385 15.61Z" fill="currentColor"/>
<path d="M27.3429 15.7176H27.9505C27.9505 15.7176 28.0387 15.7078 28.0583 15.6686C28.0779 15.6294 28.0975 15.6 28.0975 15.5608V14.0614H29.0481C29.3813 14.0614 29.6753 14.0124 29.9203 13.9046C30.1653 13.8066 30.3613 13.6498 30.4985 13.444C30.6357 13.2382 30.7043 12.9736 30.7043 12.6502C30.7043 12.3268 30.6357 12.072 30.4985 11.8564C30.3613 11.6408 30.1653 11.484 29.9203 11.386C29.6753 11.2782 29.3813 11.2292 29.0481 11.2292H27.3331C27.3331 11.2292 27.2547 11.239 27.2253 11.2782C27.1959 11.3076 27.1763 11.3468 27.1763 11.3958V15.5608C27.1763 15.5608 27.1959 15.6392 27.2253 15.6686C27.2547 15.698 27.2939 15.7176 27.3331 15.7176H27.3429ZM28.0877 11.9446H29.0187C29.2833 11.9446 29.4793 12.0132 29.5969 12.1406C29.7243 12.268 29.7831 12.4444 29.7831 12.66C29.7831 12.8952 29.7145 13.0618 29.5871 13.1794C29.4499 13.297 29.2637 13.3558 29.0187 13.3558H28.0877V11.9446Z" fill="currentColor"/>
<path d="M31.5081 15.0122C31.6649 15.2768 31.8707 15.4728 32.1451 15.5904C32.4195 15.708 32.7429 15.7766 33.1251 15.7766C33.5073 15.7766 33.8307 15.7178 34.1051 15.5904C34.3795 15.463 34.5951 15.267 34.7519 15.0122C34.9087 14.7476 34.9871 14.4242 34.9969 14.0322C34.9969 13.846 35.0067 13.6696 35.0067 13.4834C35.0067 13.2972 35.0067 13.1208 34.9969 12.9346C34.9871 12.5426 34.8989 12.2192 34.7421 11.9644C34.5853 11.6998 34.3697 11.5038 34.0855 11.3764C33.8111 11.2392 33.4877 11.1804 33.1153 11.1804C32.7429 11.1804 32.4293 11.249 32.1549 11.3764C31.8805 11.5038 31.6649 11.6998 31.5081 11.9644C31.3513 12.2192 31.2631 12.5524 31.2533 12.9346C31.2533 13.1208 31.2533 13.307 31.2533 13.4834C31.2533 13.6598 31.2533 13.846 31.2533 14.0322C31.2631 14.4242 31.3513 14.7476 31.4983 15.0122H31.5081ZM32.1745 12.964C32.1745 12.719 32.2333 12.5132 32.3117 12.3564C32.3999 12.1996 32.5077 12.0918 32.6449 12.0134C32.7821 11.9448 32.9487 11.9056 33.1251 11.9056C33.3015 11.9056 33.4681 11.9448 33.6151 12.0134C33.7621 12.082 33.8699 12.1996 33.9483 12.3564C34.0267 12.5132 34.0757 12.719 34.0855 12.964C34.0855 13.1502 34.0953 13.3168 34.0953 13.4834C34.0953 13.65 34.0953 13.8166 34.0855 14.0028C34.0757 14.3752 33.9777 14.6398 33.8013 14.8064C33.6249 14.973 33.3995 15.0514 33.1251 15.0514C32.8507 15.0514 32.6253 14.973 32.4489 14.8064C32.2725 14.6398 32.1745 14.3752 32.1647 14.0028C32.1647 13.8166 32.1647 13.6402 32.1647 13.4834C32.1647 13.3266 32.1647 13.1502 32.1647 12.964H32.1745Z" fill="currentColor"/>
<path d="M38.4855 13.8852C38.7501 13.7872 38.9559 13.6402 39.1127 13.4344C39.2695 13.2286 39.3479 12.964 39.3479 12.6504C39.3479 12.1898 39.2009 11.8468 38.8971 11.6116C38.6031 11.3764 38.1915 11.249 37.6721 11.249H36.0159C36.0159 11.249 35.9375 11.2588 35.9081 11.298C35.8787 11.3372 35.8591 11.3666 35.8591 11.4156V15.5806C35.8591 15.5806 35.8689 15.659 35.9081 15.6884C35.9473 15.7178 35.9767 15.7374 36.0159 15.7374H36.5941C36.5941 15.7374 36.6823 15.7276 36.7019 15.6884C36.7215 15.6492 36.7411 15.6198 36.7411 15.5806V14.042H37.6329L38.4561 15.561C38.4561 15.561 38.5051 15.6394 38.5443 15.6786C38.5835 15.7178 38.6423 15.7374 38.7109 15.7374H39.2891C39.2891 15.7374 39.3577 15.7276 39.3871 15.6982C39.4165 15.6688 39.4263 15.6394 39.4263 15.6002C39.4263 15.5806 39.4263 15.5512 39.4067 15.5316L38.4757 13.895L38.4855 13.8852ZM38.2405 13.1306C38.1131 13.2482 37.9171 13.307 37.6623 13.307H36.7607V11.9448H37.6623C37.9269 11.9448 38.1229 12.0036 38.2503 12.131C38.3777 12.2584 38.4365 12.4152 38.4365 12.6308C38.4365 12.8464 38.3679 13.013 38.2405 13.1306Z" fill="currentColor"/>
<path d="M43.1799 11.2393H39.9164C39.9164 11.2393 39.8381 11.2491 39.8087 11.2883C39.7793 11.3177 39.7596 11.3569 39.7596 11.4059V11.8763C39.7596 11.8763 39.7793 11.9547 39.8087 11.9841C39.8381 12.0135 39.8772 12.0331 39.9164 12.0331H41.1023V15.5709C41.1023 15.5709 41.1121 15.6493 41.1513 15.6787C41.1905 15.7081 41.2198 15.7277 41.259 15.7277H41.847C41.847 15.7277 41.9352 15.7179 41.9646 15.6787C41.994 15.6395 42.0137 15.6101 42.0137 15.5709V12.0331H43.1896C43.1896 12.0331 43.2779 12.0233 43.3073 11.9841C43.3367 11.9547 43.3563 11.9155 43.3563 11.8763V11.4059C43.3563 11.4059 43.3367 11.3177 43.3073 11.2883C43.2779 11.2589 43.2386 11.2393 43.1896 11.2393H43.1799Z" fill="currentColor"/>
<path d="M13.5444 44.8627H40.4552L26.9998 22.1365L13.5444 44.8627ZM16.0042 43.4613L26.9998 24.8805L37.9954 43.4613H15.9944H16.0042Z" fill="currentColor"/>
<path d="M42.2977 45.9114H11.7021L26.9999 20.0688L42.2977 45.9114ZM17.8468 42.4128H36.163L27.0098 26.9386L17.8565 42.4128H17.8468Z" fill="currentColor"/>
<path d="M38.1328 51.8797C37.9466 51.7621 37.6428 51.8209 37.3978 51.8209C33.9384 51.8209 30.4692 51.8209 27.0098 51.8209C25.236 51.8209 23.4524 51.8209 21.6786 51.8209C19.8558 51.8209 18.033 51.8209 16.2102 51.8209C15.7104 51.8209 15.3478 52.0463 15.3576 52.5755C15.3674 53.0753 15.7104 53.2811 16.1906 53.2909C16.3278 53.2909 16.465 53.2909 16.6022 53.2909C23.57 53.2909 30.5476 53.2909 37.5154 53.2909C37.7212 53.2909 37.9858 53.3399 38.1132 53.2419C38.3484 53.0557 38.6424 52.7813 38.662 52.5265C38.6816 52.3109 38.3778 52.0169 38.1426 51.8699L38.1328 51.8797Z" fill="currentColor"/>
<path d="M32.6251 55.447C28.8717 55.447 25.1183 55.447 21.3649 55.447C20.8455 55.447 20.4437 55.6136 20.4437 56.2016C20.4437 56.7994 20.8455 56.9366 21.3649 56.9366C23.2269 56.9268 25.0987 56.9366 26.9607 56.9366C28.8227 56.9366 30.7337 56.9366 32.6251 56.9366C33.1641 56.9366 33.5561 56.7602 33.5561 56.2016C33.5561 55.643 33.1445 55.447 32.6251 55.447Z" fill="currentColor"/>
<path d="M45.0418 1.9978H8.9582C5.39143 1.9978 2.5 4.88924 2.5 8.456V58.5438C2.5 62.1106 5.39143 65.002 8.9582 65.002H45.0418C48.6086 65.002 51.5 62.1106 51.5 58.5438V8.456C51.5 4.88924 48.6086 1.9978 45.0418 1.9978Z" stroke="currentColor" stroke-width="4" stroke-miterlimit="10"/>
</svg>
