<?xml version="1.0" encoding="utf-8"?>
<!-- Generator: Adobe Illustrator 27.1.0, SVG Export Plug-In . SVG Version: 6.00 Build 0)  -->
<svg version="1.1" id="Layer_1" xmlns="http://www.w3.org/2000/svg" xmlns:xlink="http://www.w3.org/1999/xlink" x="0px" y="0px"
	 viewBox="0 0 348 234" style="enable-background:new 0 0 348 234;" xml:space="preserve">
<style type="text/css">
	.st0{fill:currentColor;}
</style>
<path class="st0" d="M143.9,0.4L34.5,92.2l6.1,6.1l-3.4,3.4l14.8,5.8l-9.9,8.3l-20.7-8.1l6.2-5.2l-2.4-2.4L0.5,120.7l17,20.2
	L160.8,20.6L143.9,0.4z M17.9,136.1l-12.6-15l3-2.5l20.7,8.1L17.9,136.1z M65.1,96.5l-20.7-8.1l9.6-8.1l20.7,8.1L65.1,96.5z
	 M87.8,77.5l-20.7-8.1L77,61l20.7,8.1L87.8,77.5z M110.7,58.2L90,50.1l9.8-8.2l20.7,8.1L110.7,58.2z M133.6,39l-20.7-8.1l9.9-8.3
	l20.7,8.1L133.6,39z M135.8,11.6l7.6-6.4l11.7,14l0,0L135.8,11.6z"/>
<path class="st0" d="M12.1,74.2v159.4h39.8V74.2H12.1z M32,106.8l-8.6-8.6l8.6-8.6l8.6,8.6L32,106.8z"/>
<path class="st0" d="M323.4,100.5l-2.4,2.4l5.7,4.8l-20.7,8.1l-9.9-8.3l15.6-6.1l-3.1-3.1l5.6-5.6L204.1,0.4l-17,20.2l143.4,120.3
	l17-20.2L323.4,100.5z M204.6,5.3L204.6,5.3l7.6,6.4l-19.4,7.6L204.6,5.3z M204.5,30.7l20.7-8.1l9.9,8.3L214.4,39L204.5,30.7z
	 M227.5,50l20.7-8.1l9.8,8.2l-20.7,8.1L227.5,50z M250.3,69.2L271,61l9.9,8.3l-20.7,8.1L250.3,69.2z M273.3,88.4l20.7-8.1l9.6,8.1
	l-20.7,8.1L273.3,88.4z M330.1,136.1l-11.2-9.4l20.7-8.1l3,2.5L330.1,136.1z"/>
<path class="st0" d="M295.9,74.2v159.4h39.8V74.2H295.9z M317,106.8l-8.6-8.6l8.6-8.6l8.6,8.6L317,106.8z"/>
</svg>
