<svg width="37" height="36" viewBox="0 0 37 36" fill="none" xmlns="http://www.w3.org/2000/svg">
<path fill-rule="evenodd" clip-rule="evenodd" d="M35.78 18.4091C35.78 17.1327 35.6655 15.9055 35.4527 14.7273H18.5V21.69H28.1873C27.77 23.94 26.5018 25.8464 24.5955 27.1227V31.6391H30.4127C33.8164 28.5055 35.78 23.8909 35.78 18.4091Z" fill="#4285F4"/>
<path fill-rule="evenodd" clip-rule="evenodd" d="M18.4999 35.9997C23.3599 35.9997 27.4345 34.3879 30.4127 31.6388L24.5954 27.1224C22.9836 28.2024 20.9218 28.8406 18.4999 28.8406C13.8118 28.8406 9.84358 25.6743 8.42813 21.4197H2.41449V26.0833C5.37631 31.9661 11.4636 35.9997 18.4999 35.9997Z" fill="#34A853"/>
<path fill-rule="evenodd" clip-rule="evenodd" d="M8.42818 21.4201C8.06818 20.3401 7.86364 19.1865 7.86364 18.0001C7.86364 16.8137 8.06818 15.6601 8.42818 14.5801V9.91647H2.41455C1.19545 12.3465 0.5 15.0956 0.5 18.0001C0.5 20.9047 1.19545 23.6537 2.41455 26.0837L8.42818 21.4201Z" fill="#FBBC05"/>
<path fill-rule="evenodd" clip-rule="evenodd" d="M18.4999 7.15909C21.1427 7.15909 23.5154 8.06727 25.3809 9.85091L30.5436 4.68818C27.4263 1.78364 23.3518 0 18.4999 0C11.4636 0 5.37631 4.03364 2.41449 9.91636L8.42813 14.58C9.84358 10.3255 13.8118 7.15909 18.4999 7.15909Z" fill="#EA4335"/>
</svg>
