<svg width="196" height="133" viewBox="0 0 196 133" fill="none" xmlns="http://www.w3.org/2000/svg">
<g clip-path="url(#clip0_343_8318)">
<path d="M82.96 1.5308C82.25 0.68522 80.9891 0.574969 80.1431 1.28449L1.53325 67.2147C0.686598 67.9248 0.576242 69.187 1.28681 70.0332L10.4621 80.9605C11.1721 81.8061 12.433 81.9163 13.2789 81.2068L91.8888 15.2766C92.7355 14.5665 92.8458 13.3043 92.1353 12.4581L82.96 1.5308Z" fill="#01193F"/>
<path d="M12.0941 78.5114L89.4397 13.6437L81.3265 3.97962L3.98087 68.8473L12.0941 78.5114Z" fill="currentColor"/>
<path d="M81.4427 2.65417L2.65552 68.7325L11.9793 79.8397L90.7665 13.7614L81.4427 2.65417ZM26.7716 50.9631L32.0454 46.5394L43.4329 50.9977L38.1591 55.4214L26.7716 50.9631ZM30.9789 61.444L25.5371 66.009L14.1496 61.5506L19.5914 56.9857L30.9789 61.444ZM39.2282 40.5168L44.67 35.9518L56.0575 40.4102L50.6157 44.9751L39.2282 40.5168ZM51.8528 29.9292L57.2119 25.4362L68.5994 29.8946L63.2403 34.3875L51.8528 29.9292ZM64.3921 19.4109L69.8339 14.846L81.2214 19.3043L75.7796 23.8693L64.3921 19.4109ZM87.663 12.9886L77.0194 8.8207L81.2134 5.30306L87.6656 12.9859L87.663 12.9886ZM5.31108 68.9643L6.96415 67.5759L18.3516 72.0343L12.2113 77.1855L5.31108 68.9643Z" fill="white"/>
<path d="M113.04 1.5308C113.75 0.685224 115.011 0.574969 115.857 1.28449L194.467 67.2147C195.313 67.9248 195.424 69.187 194.713 70.0332L185.538 80.9605C184.828 81.8061 183.567 81.9163 182.721 81.2068L104.111 15.2766C103.264 14.5665 103.154 13.3043 103.865 12.4581L113.04 1.5308Z" fill="#01193F"/>
<path d="M192.019 68.8491L114.673 3.98132L106.56 13.6454L183.905 78.5131L192.019 68.8491Z" fill="currentColor"/>
<path d="M105.233 13.7614L184.021 79.837L193.344 68.7298L114.557 2.65417L105.233 13.7614ZM157.841 55.4241L152.567 51.0004L163.954 46.542L169.228 50.9657L157.841 55.4241ZM176.411 56.9884L181.853 61.5533L170.465 66.0117L165.024 61.4467L176.411 56.9884ZM145.384 44.9778L139.942 40.4128L151.33 35.9545L156.772 40.5194L145.384 44.9778ZM132.76 34.3902L127.4 29.8972L138.788 25.4389L144.147 29.9319L132.76 34.3902ZM120.22 23.8719L114.779 19.307L126.166 14.8487L131.608 19.4136L120.22 23.8719ZM114.792 5.30839L118.986 8.82603L108.342 12.9939L114.794 5.31106L114.792 5.30839ZM183.791 77.1855L177.651 72.0343L189.038 67.5759L190.691 68.9643L183.791 77.1855Z" fill="white"/>
<path d="M94.0007 105.493C94.0007 106.598 93.1052 107.493 92.0007 107.493H48.8804C47.7758 107.493 46.8804 106.598 46.8804 105.493V74.34C46.8804 73.6057 47.2828 72.9305 47.9286 72.581L69.49 60.9144C70.0839 60.5931 70.7998 60.5931 71.3937 60.9145L92.9525 72.581C93.5983 72.9305 94.0007 73.6057 94.0007 74.34V105.493Z" fill="white" stroke="#01193F" stroke-width="5" stroke-miterlimit="10"/>
<path d="M150.482 105.493C150.482 106.598 149.587 107.493 148.482 107.493H105.362C104.257 107.493 103.362 106.598 103.362 105.493V74.34C103.362 73.6057 103.764 72.9305 104.41 72.581L125.969 60.9145C126.563 60.5931 127.279 60.5931 127.872 60.9144L149.434 72.581C150.08 72.9305 150.482 73.6057 150.482 74.34V105.493Z" fill="white" stroke="#01193F" stroke-width="5" stroke-miterlimit="10"/>
<path d="M169.258 61.2821L175.928 67.949L182.598 61.2821L175.928 54.6153L169.258 61.2821Z" fill="white"/>
<path d="M13.3078 61.2851L19.978 67.9519L26.6483 61.2851L19.978 54.6182L13.3078 61.2851Z" fill="white"/>
<path d="M122.271 128.64C122.271 129.745 121.375 130.64 120.271 130.64H77.1531C76.0485 130.64 75.1531 129.745 75.1531 128.64V97.487C75.1531 96.7528 75.5554 96.0776 76.2011 95.7282L97.7599 84.0592C98.3539 83.7377 99.07 83.7377 99.6639 84.0592L121.223 95.7282C121.868 96.0776 122.271 96.7528 122.271 97.487V128.64Z" fill="white" stroke="#01193F" stroke-width="5" stroke-miterlimit="10"/>
<path d="M75.1531 128.64C75.1531 129.745 74.2577 130.64 73.1531 130.64H45.4143C44.3097 130.64 43.4143 129.745 43.4143 128.64V108.698C43.4143 107.964 43.8167 107.289 44.4626 106.939L58.332 99.4352C58.9258 99.1139 59.6416 99.1139 60.2355 99.4352L74.1049 106.939C74.7507 107.289 75.1531 107.964 75.1531 108.698V128.64Z" fill="white" stroke="#01193F" stroke-width="5" stroke-miterlimit="10"/>
<path d="M154.14 128.64C154.14 129.745 153.245 130.64 152.14 130.64H124.401C123.297 130.64 122.401 129.745 122.401 128.64V108.698C122.401 107.964 122.804 107.289 123.45 106.939L137.319 99.4352C137.913 99.1139 138.629 99.1139 139.223 99.4352L153.092 106.939C153.738 107.289 154.14 107.964 154.14 108.698V128.64Z" fill="white" stroke="#01193F" stroke-width="5" stroke-miterlimit="10"/>
<path d="M166.984 130.72H184.876C185.981 130.72 186.876 129.825 186.876 128.72V45.195C186.876 44.0904 185.981 43.195 184.876 43.195H166.984C165.879 43.195 164.984 44.0904 164.984 45.195V128.72C164.984 129.825 165.879 130.72 166.984 130.72Z" fill="white" stroke="#01193F" stroke-width="5" stroke-miterlimit="10"/>
<path d="M28.9229 43.1951H11.0305C9.92595 43.1951 9.03052 44.0905 9.03052 45.1951V128.72C9.03052 129.825 9.92595 130.72 11.0305 130.72H28.9229C30.0275 130.72 30.9229 129.825 30.9229 128.72V45.1951C30.9229 44.0905 30.0275 43.1951 28.9229 43.1951Z" fill="white" stroke="#01193F" stroke-width="5" stroke-miterlimit="10"/>
<path d="M19.9782 51.6799L15.2668 56.3889L19.9782 61.0979L24.6896 56.3889L19.9782 51.6799Z" fill="currentColor"/>
<path d="M70.4407 69.7242L64.7866 75.3754L70.4407 81.0265L76.0947 75.3754L70.4407 69.7242Z" fill="currentColor"/>
<path d="M59.2834 106.068L54.572 110.777L59.2834 115.486L63.9948 110.777L59.2834 106.068Z" fill="currentColor"/>
<path d="M126.92 69.7233L121.266 75.3745L126.92 81.0257L132.574 75.3745L126.92 69.7233Z" fill="currentColor"/>
<path d="M99.094 91.6114L93.4399 97.2626L99.094 102.914L104.748 97.2626L99.094 91.6114Z" fill="currentColor"/>
<path d="M138.141 106.069L133.43 110.778L138.141 115.487L142.852 110.778L138.141 106.069Z" fill="currentColor"/>
<path d="M176.589 51.678L171.878 56.387L176.589 61.096L181.301 56.387L176.589 51.678Z" fill="currentColor"/>
</g>
<defs>
<clipPath id="clip0_343_8318">
<rect width="196" height="132.178" fill="white"/>
</clipPath>
</defs>
</svg>
