<svg width="562" height="488" viewBox="0 0 562 488" fill="none" xmlns="http://www.w3.org/2000/svg">
<path d="M235.475 1.5308C234.765 0.685223 233.504 0.574969 232.658 1.28449L1.53325 195.129C0.686594 195.839 0.576242 197.101 1.28681 197.948L32.3986 235C33.1086 235.846 34.3695 235.956 35.2154 235.247L266.34 41.4019C267.187 40.6918 267.297 39.4296 266.587 38.5834L235.475 1.5308Z" fill="#004F82"/>
<path d="M34.678 225.12L256.455 39.1214L233.191 11.4112L11.4145 197.409L34.678 225.12Z" fill="#004F82"/>
<path d="M233.525 7.61053L7.61444 197.08L34.349 228.928L260.259 39.4588L233.525 7.61053ZM76.7636 146.129L91.8854 133.445L124.537 146.228L109.415 158.913L76.7636 146.129ZM88.8274 176.181L73.2239 189.271L40.5721 176.487L56.1756 163.398L88.8274 176.181ZM112.481 116.176L128.085 103.086L160.736 115.87L145.133 128.959L112.481 116.176ZM148.68 85.8175L164.047 72.9345L196.699 85.7182L181.332 98.6011L148.68 85.8175ZM184.635 55.658L200.238 42.5687L232.89 55.3523L217.287 68.4416L184.635 55.658ZM251.36 37.2428L220.841 25.2921L232.867 15.2058L251.368 37.2352L251.36 37.2428ZM15.2289 197.745L19.9688 193.764L52.6206 206.547L35.0142 221.318L15.2289 197.745Z" fill="white"/>
<path d="M326.525 1.5308C327.235 0.685222 328.496 0.574969 329.342 1.28449L560.467 195.129C561.313 195.839 561.424 197.101 560.713 197.948L529.601 235C528.891 235.846 527.631 235.956 526.785 235.247L295.66 41.4019C294.813 40.6918 294.703 39.4296 295.413 38.5834L326.525 1.5308Z" fill="#004F82"/>
<path d="M550.585 197.414L328.808 11.4161L305.545 39.1263L527.321 225.125L550.585 197.414Z" fill="#004F82"/>
<path d="M301.741 39.4588L527.651 228.921L554.386 197.072L328.476 7.61053L301.741 39.4588ZM452.585 158.92L437.463 146.236L470.115 133.452L485.236 146.137L452.585 158.92ZM505.832 163.406L521.436 176.495L488.784 189.278L473.18 176.189L505.832 163.406ZM416.867 128.967L401.264 115.878L433.916 103.094L449.519 116.183L416.867 128.967ZM380.668 98.6087L365.302 85.7258L397.953 72.9422L413.32 85.8251L380.668 98.6087ZM344.714 68.4492L329.11 55.3599L361.762 42.5763L377.365 55.6656L344.714 68.4492ZM329.148 15.2211L341.174 25.3074L310.655 37.2581L329.156 15.2287L329.148 15.2211ZM526.994 221.318L509.387 206.547L542.039 193.764L546.779 197.745L526.994 221.318Z" fill="white"/>
<path d="M269.532 306.22C269.532 307.325 268.637 308.22 267.532 308.22H136.422C135.318 308.22 134.422 307.325 134.422 306.22V210.933C134.422 210.199 134.825 209.524 135.47 209.174L201.029 173.701C201.623 173.38 202.339 173.38 202.933 173.701L268.484 209.174C269.13 209.524 269.532 210.199 269.532 210.933V306.22Z" fill="white" stroke="#004F82" stroke-width="5" stroke-miterlimit="10"/>
<path d="M431.484 306.22C431.484 307.325 430.589 308.22 429.484 308.22H298.374C297.27 308.22 296.374 307.325 296.374 306.22V210.933C296.374 210.199 296.776 209.524 297.422 209.174L362.974 173.701C363.567 173.38 364.283 173.38 364.877 173.701L430.436 209.174C431.082 209.524 431.484 210.199 431.484 210.933V306.22Z" fill="white" stroke="#004F82" stroke-width="5" stroke-miterlimit="10"/>
<path d="M485.322 175.717L504.448 194.833L523.573 175.717L504.448 156.601L485.322 175.717Z" fill="white"/>
<path d="M38.1581 175.725L57.2839 194.842L76.4098 175.725L57.2839 156.609L38.1581 175.725Z" fill="white"/>
<path d="M350.593 372.591C350.593 373.696 349.697 374.591 348.593 374.591H217.49C216.385 374.591 215.49 373.696 215.49 372.591V277.304C215.49 276.57 215.892 275.894 216.538 275.545L282.089 240.065C282.683 239.743 283.399 239.743 283.993 240.065L349.545 275.545C350.19 275.894 350.593 276.57 350.593 277.304V372.591Z" fill="white" stroke="#004F82" stroke-width="5" stroke-miterlimit="10"/>
<path d="M215.49 372.591C215.49 373.696 214.594 374.591 213.49 374.591H126.484C125.379 374.591 124.484 373.696 124.484 372.591V309.45C124.484 308.716 124.886 308.041 125.532 307.691L169.035 284.154C169.629 283.832 170.345 283.832 170.939 284.154L214.442 307.691C215.087 308.041 215.49 308.716 215.49 309.45V372.591Z" fill="white" stroke="#004F82" stroke-width="5" stroke-miterlimit="10"/>
<path d="M441.973 372.591C441.973 373.696 441.078 374.591 439.973 374.591H352.967C351.863 374.591 350.967 373.696 350.967 372.591V309.45C350.967 308.716 351.37 308.041 352.015 307.691L395.518 284.154C396.112 283.832 396.828 283.832 397.422 284.154L440.925 307.691C441.571 308.041 441.973 308.716 441.973 309.45V372.591Z" fill="white" stroke="#004F82" stroke-width="5" stroke-miterlimit="10"/>
<path d="M475.066 374.82H533.839C534.943 374.82 535.839 373.925 535.839 372.82V125.855C535.839 124.75 534.943 123.855 533.839 123.855H475.066C473.961 123.855 473.066 124.75 473.066 125.855V372.82C473.066 373.925 473.961 374.82 475.066 374.82Z" fill="white" stroke="#004F82" stroke-width="5" stroke-miterlimit="10"/>
<path d="M86.6669 123.855H27.8937C26.7891 123.855 25.8937 124.75 25.8937 125.855V372.82C25.8937 373.925 26.7891 374.82 27.8937 374.82H86.6669C87.7714 374.82 88.6669 373.925 88.6669 372.82V125.855C88.6669 124.75 87.7714 123.855 86.6669 123.855Z" fill="white" stroke="#004F82" stroke-width="5" stroke-miterlimit="10"/>
<path d="M57.2842 148.184L43.775 161.687L57.2842 175.189L70.7934 161.687L57.2842 148.184Z" fill="#004F82"/>
<path d="M201.978 199.924L185.766 216.127L201.978 232.331L218.19 216.127L201.978 199.924Z" fill="#004F82"/>
<path d="M169.986 304.133L156.477 317.636L169.986 331.138L183.496 317.636L169.986 304.133Z" fill="#004F82"/>
<path d="M363.925 199.921L347.713 216.125L363.925 232.329L380.137 216.125L363.925 199.921Z" fill="#004F82"/>
<path d="M284.137 262.682L267.925 278.885L284.137 295.089L300.349 278.885L284.137 262.682Z" fill="#004F82"/>
<path d="M396.098 304.138L382.589 317.64L396.098 331.143L409.607 317.64L396.098 304.138Z" fill="#004F82"/>
<path d="M506.343 148.178L492.833 161.681L506.343 175.183L519.852 161.681L506.343 148.178Z" fill="#004F82"/>
<path d="M21.6495 486.944C20.8723 486.944 20.2364 486.698 19.7419 486.206C19.2472 485.713 19 485.08 19 484.306V415.694C19 414.92 19.2472 414.287 19.7419 413.794C20.2364 413.302 20.8723 413.056 21.6495 413.056H51.3242C57.1886 413.056 62.2757 413.97 66.5853 415.8C70.9662 417.559 74.3576 420.233 76.7595 423.822C79.2327 427.411 80.4688 431.95 80.4688 437.439C80.4688 442.858 79.2327 447.326 76.7595 450.844C74.3576 454.363 70.9662 456.967 66.5853 458.656C62.2757 460.344 57.1886 461.189 51.3242 461.189H38.7125V484.306C38.7125 485.08 38.4298 485.713 37.8646 486.206C37.37 486.698 36.7341 486.944 35.9569 486.944H21.6495ZM38.3945 446.622H50.7943C53.8324 446.622 56.2348 445.848 58.0009 444.3C59.8382 442.752 60.7564 440.394 60.7564 437.228C60.7564 434.553 59.9789 432.302 58.4248 430.472C56.8707 428.642 54.3269 427.728 50.7943 427.728H38.3945V446.622ZM81.2057 486.944C80.6402 486.944 80.1103 486.733 79.616 486.311C79.1921 485.819 78.9801 485.291 78.9801 484.728C78.9801 484.376 79.0157 484.059 79.0861 483.778L103.992 416.011C104.204 415.237 104.628 414.569 105.263 414.006C105.97 413.372 106.924 413.056 108.125 413.056H123.81C125.011 413.056 125.93 413.372 126.566 414.006C127.272 414.569 127.731 415.237 127.943 416.011L152.743 483.778C152.884 484.059 152.955 484.376 152.955 484.728C152.955 485.291 152.707 485.819 152.213 486.311C151.789 486.733 151.259 486.944 150.623 486.944H137.588C136.528 486.944 135.716 486.698 135.15 486.206C134.656 485.642 134.338 485.15 134.196 484.728L130.063 473.961H101.766L97.7388 484.728C97.5972 485.15 97.2792 485.642 96.7849 486.206C96.2906 486.698 95.4428 486.944 94.2414 486.944H81.2057ZM106.111 458.761H125.824L115.861 430.894L106.111 458.761ZM187.831 488C180.766 488 174.901 487.015 170.238 485.044C165.575 483.003 162.042 480.365 159.64 477.128C157.238 473.891 155.966 470.442 155.825 466.783C155.825 466.22 156.037 465.728 156.46 465.306C156.955 464.813 157.52 464.567 158.156 464.567H171.51C172.499 464.567 173.241 464.742 173.735 465.094C174.301 465.447 174.795 465.903 175.219 466.467C175.785 467.522 176.561 468.542 177.551 469.528C178.61 470.513 179.953 471.322 181.578 471.956C183.274 472.519 185.358 472.8 187.831 472.8C191.928 472.8 195.002 472.167 197.051 470.9C199.171 469.633 200.231 467.909 200.231 465.728C200.231 464.18 199.665 462.913 198.535 461.928C197.405 460.872 195.567 459.958 193.024 459.183C190.551 458.339 187.231 457.494 183.062 456.65C177.692 455.524 173.099 454.081 169.284 452.322C165.539 450.492 162.678 448.135 160.7 445.25C158.722 442.294 157.732 438.635 157.732 434.272C157.732 429.98 158.934 426.144 161.336 422.767C163.809 419.389 167.235 416.75 171.616 414.85C175.997 412.95 181.19 412 187.195 412C192.07 412 196.345 412.633 200.019 413.9C203.764 415.167 206.907 416.856 209.451 418.967C211.994 421.078 213.902 423.33 215.174 425.722C216.516 428.044 217.223 430.331 217.294 432.583C217.294 433.147 217.082 433.674 216.658 434.167C216.234 434.589 215.704 434.8 215.068 434.8H201.078C200.301 434.8 199.63 434.659 199.065 434.378C198.499 434.097 198.005 433.639 197.581 433.006C197.157 431.458 196.027 430.12 194.19 428.994C192.424 427.798 190.092 427.2 187.195 427.2C184.086 427.2 181.648 427.763 179.882 428.889C178.187 429.944 177.339 431.598 177.339 433.85C177.339 435.258 177.798 436.489 178.716 437.544C179.706 438.6 181.296 439.515 183.486 440.289C185.747 441.063 188.82 441.872 192.706 442.717C199.135 443.913 204.328 445.426 208.285 447.256C212.242 449.015 215.138 451.337 216.976 454.222C218.813 457.037 219.731 460.591 219.731 464.883C219.731 469.669 218.353 473.82 215.598 477.339C212.913 480.787 209.169 483.426 204.364 485.256C199.559 487.085 194.048 488 187.831 488ZM224.963 486.944C224.398 486.944 223.868 486.733 223.373 486.311C222.949 485.819 222.737 485.291 222.737 484.728C222.737 484.376 222.773 484.059 222.843 483.778L247.749 416.011C247.961 415.237 248.385 414.569 249.021 414.006C249.727 413.372 250.681 413.056 251.882 413.056H267.567C268.769 413.056 269.687 413.372 270.323 414.006C271.029 414.569 271.489 415.237 271.701 416.011L296.5 483.778C296.642 484.059 296.712 484.376 296.712 484.728C296.712 485.291 296.465 485.819 295.97 486.311C295.546 486.733 295.016 486.944 294.381 486.944H281.345C280.285 486.944 279.473 486.698 278.907 486.206C278.413 485.642 278.095 485.15 277.953 484.728L273.82 473.961H245.523L241.496 484.728C241.354 485.15 241.037 485.642 240.542 486.206C240.048 486.698 239.2 486.944 237.999 486.944H224.963ZM249.869 458.761H269.581L259.619 430.894L249.869 458.761ZM307.715 486.944C306.938 486.944 306.302 486.698 305.807 486.206C305.313 485.713 305.066 485.08 305.066 484.306V415.694C305.066 414.92 305.313 414.287 305.807 413.794C306.302 413.302 306.938 413.056 307.715 413.056H335.27C342.194 413.056 348.094 414.181 352.969 416.433C357.844 418.615 361.589 421.852 364.203 426.144C366.817 430.367 368.23 435.609 368.442 441.872C368.513 444.969 368.548 447.678 368.548 450C368.548 452.322 368.513 454.997 368.442 458.022C368.16 464.567 366.746 469.985 364.203 474.278C361.73 478.57 358.092 481.772 353.287 483.883C348.553 485.924 342.724 486.944 335.8 486.944H307.715ZM324.036 471.744H335.27C338.308 471.744 340.817 471.287 342.795 470.372C344.844 469.387 346.363 467.874 347.352 465.833C348.412 463.792 348.977 461.119 349.048 457.811C349.189 455.77 349.26 453.941 349.26 452.322C349.33 450.703 349.33 449.085 349.26 447.467C349.26 445.848 349.189 444.053 349.048 442.083C348.906 437.298 347.634 433.815 345.232 431.633C342.901 429.381 339.403 428.256 334.74 428.256H324.036V471.744ZM383.578 486.944C382.801 486.944 382.165 486.698 381.671 486.206C381.176 485.713 380.929 485.08 380.929 484.306V415.694C380.929 414.92 381.176 414.287 381.671 413.794C382.165 413.302 382.801 413.056 383.578 413.056H397.78C398.557 413.056 399.193 413.302 399.687 413.794C400.182 414.287 400.429 414.92 400.429 415.694V484.306C400.429 485.08 400.182 485.713 399.687 486.206C399.193 486.698 398.557 486.944 397.78 486.944H383.578ZM434.26 486.944C433.483 486.944 432.847 486.698 432.353 486.206C431.858 485.713 431.611 485.08 431.611 484.306V429.628H412.746C411.969 429.628 411.333 429.381 410.839 428.889C410.344 428.326 410.097 427.692 410.097 426.989V415.694C410.097 414.92 410.344 414.287 410.839 413.794C411.333 413.302 411.969 413.056 412.746 413.056H469.764C470.542 413.056 471.177 413.302 471.672 413.794C472.166 414.287 472.414 414.92 472.414 415.694V426.989C472.414 427.692 472.166 428.326 471.672 428.889C471.177 429.381 470.542 429.628 469.764 429.628H450.899V484.306C450.899 485.08 450.652 485.713 450.158 486.206C449.663 486.698 449.027 486.944 448.25 486.944H434.26ZM470.251 486.944C469.685 486.944 469.155 486.733 468.661 486.311C468.237 485.819 468.025 485.291 468.025 484.728C468.025 484.376 468.061 484.059 468.131 483.778L493.037 416.011C493.249 415.237 493.673 414.569 494.309 414.006C495.015 413.372 495.969 413.056 497.17 413.056H512.855C514.057 413.056 514.975 413.372 515.611 414.006C516.317 414.569 516.777 415.237 516.988 416.011L541.788 483.778C541.93 484.059 542 484.376 542 484.728C542 485.291 541.752 485.819 541.258 486.311C540.834 486.733 540.304 486.944 539.668 486.944H526.633C525.573 486.944 524.761 486.698 524.195 486.206C523.701 485.642 523.383 485.15 523.241 484.728L519.108 473.961H490.811L486.784 484.728C486.642 485.15 486.324 485.642 485.83 486.206C485.336 486.698 484.488 486.944 483.287 486.944H470.251ZM495.156 458.761H514.869L504.907 430.894L495.156 458.761Z" fill="#01193F"/>
</svg>
