<svg width="480" height="481" viewBox="0 0 480 481" fill="none" xmlns="http://www.w3.org/2000/svg">
<rect width="480" height="480" transform="translate(0 0.5)" fill="white"/>
<path d="M27.234 27.734H44.2553V44.7553H27.234V27.734ZM44.2553 27.734H61.2766V44.7553H44.2553V27.734ZM61.2766 27.734H78.2978V44.7553H61.2766V27.734ZM78.2978 27.734H95.3191V44.7553H78.2978V27.734ZM95.3191 27.734H112.34V44.7553H95.3191V27.734ZM112.34 27.734H129.362V44.7553H112.34V27.734ZM129.362 27.734H146.383V44.7553H129.362V27.734ZM214.468 27.734H231.489V44.7553H214.468V27.734ZM265.532 27.734H282.553V44.7553H265.532V27.734ZM282.553 27.734H299.574V44.7553H282.553V27.734ZM299.574 27.734H316.596V44.7553H299.574V27.734ZM333.617 27.734H350.638V44.7553H333.617V27.734ZM350.638 27.734H367.66V44.7553H350.638V27.734ZM367.66 27.734H384.681V44.7553H367.66V27.734ZM384.681 27.734H401.702V44.7553H384.681V27.734ZM401.702 27.734H418.723V44.7553H401.702V27.734ZM418.723 27.734H435.745V44.7553H418.723V27.734ZM435.745 27.734H452.766V44.7553H435.745V27.734ZM27.234 44.7553H44.2553V61.7766H27.234V44.7553ZM129.362 44.7553H146.383V61.7766H129.362V44.7553ZM180.426 44.7553H197.447V61.7766H180.426V44.7553ZM248.511 44.7553H265.532V61.7766H248.511V44.7553ZM265.532 44.7553H282.553V61.7766H265.532V44.7553ZM299.574 44.7553H316.596V61.7766H299.574V44.7553ZM333.617 44.7553H350.638V61.7766H333.617V44.7553ZM435.745 44.7553H452.766V61.7766H435.745V44.7553ZM27.234 61.7766H44.2553V78.7978H27.234V61.7766ZM61.2766 61.7766H78.2978V78.7978H61.2766V61.7766ZM78.2978 61.7766H95.3191V78.7978H78.2978V61.7766ZM95.3191 61.7766H112.34V78.7978H95.3191V61.7766ZM129.362 61.7766H146.383V78.7978H129.362V61.7766ZM180.426 61.7766H197.447V78.7978H180.426V61.7766ZM197.447 61.7766H214.468V78.7978H197.447V61.7766ZM231.489 61.7766H248.511V78.7978H231.489V61.7766ZM265.532 61.7766H282.553V78.7978H265.532V61.7766ZM282.553 61.7766H299.574V78.7978H282.553V61.7766ZM333.617 61.7766H350.638V78.7978H333.617V61.7766ZM367.66 61.7766H384.681V78.7978H367.66V61.7766ZM384.681 61.7766H401.702V78.7978H384.681V61.7766ZM401.702 61.7766H418.723V78.7978H401.702V61.7766ZM435.745 61.7766H452.766V78.7978H435.745V61.7766ZM27.234 78.7978H44.2553V95.8191H27.234V78.7978ZM61.2766 78.7978H78.2978V95.8191H61.2766V78.7978ZM78.2978 78.7978H95.3191V95.8191H78.2978V78.7978ZM95.3191 78.7978H112.34V95.8191H95.3191V78.7978ZM129.362 78.7978H146.383V95.8191H129.362V78.7978ZM163.404 78.7978H180.426V95.8191H163.404V78.7978ZM180.426 78.7978H197.447V95.8191H180.426V78.7978ZM231.489 78.7978H248.511V95.8191H231.489V78.7978ZM265.532 78.7978H282.553V95.8191H265.532V78.7978ZM282.553 78.7978H299.574V95.8191H282.553V78.7978ZM333.617 78.7978H350.638V95.8191H333.617V78.7978ZM367.66 78.7978H384.681V95.8191H367.66V78.7978ZM384.681 78.7978H401.702V95.8191H384.681V78.7978ZM401.702 78.7978H418.723V95.8191H401.702V78.7978ZM435.745 78.7978H452.766V95.8191H435.745V78.7978ZM27.234 95.8191H44.2553V112.84H27.234V95.8191ZM61.2766 95.8191H78.2978V112.84H61.2766V95.8191ZM78.2978 95.8191H95.3191V112.84H78.2978V95.8191ZM95.3191 95.8191H112.34V112.84H95.3191V95.8191ZM129.362 95.8191H146.383V112.84H129.362V95.8191ZM197.447 95.8191H214.468V112.84H197.447V95.8191ZM214.468 95.8191H231.489V112.84H214.468V95.8191ZM231.489 95.8191H248.511V112.84H231.489V95.8191ZM248.511 95.8191H265.532V112.84H248.511V95.8191ZM265.532 95.8191H282.553V112.84H265.532V95.8191ZM333.617 95.8191H350.638V112.84H333.617V95.8191ZM367.66 95.8191H384.681V112.84H367.66V95.8191ZM384.681 95.8191H401.702V112.84H384.681V95.8191ZM401.702 95.8191H418.723V112.84H401.702V95.8191ZM435.745 95.8191H452.766V112.84H435.745V95.8191ZM27.234 112.84H44.2553V129.862H27.234V112.84ZM129.362 112.84H146.383V129.862H129.362V112.84ZM163.404 112.84H180.426V129.862H163.404V112.84ZM214.468 112.84H231.489V129.862H214.468V112.84ZM299.574 112.84H316.596V129.862H299.574V112.84ZM333.617 112.84H350.638V129.862H333.617V112.84ZM435.745 112.84H452.766V129.862H435.745V112.84ZM27.234 129.862H44.2553V146.883H27.234V129.862ZM44.2553 129.862H61.2766V146.883H44.2553V129.862ZM61.2766 129.862H78.2978V146.883H61.2766V129.862ZM78.2978 129.862H95.3191V146.883H78.2978V129.862ZM95.3191 129.862H112.34V146.883H95.3191V129.862ZM112.34 129.862H129.362V146.883H112.34V129.862ZM129.362 129.862H146.383V146.883H129.362V129.862ZM163.404 129.862H180.426V146.883H163.404V129.862ZM197.447 129.862H214.468V146.883H197.447V129.862ZM231.489 129.862H248.511V146.883H231.489V129.862ZM265.532 129.862H282.553V146.883H265.532V129.862ZM299.574 129.862H316.596V146.883H299.574V129.862ZM333.617 129.862H350.638V146.883H333.617V129.862ZM350.638 129.862H367.66V146.883H350.638V129.862ZM367.66 129.862H384.681V146.883H367.66V129.862ZM384.681 129.862H401.702V146.883H384.681V129.862ZM401.702 129.862H418.723V146.883H401.702V129.862ZM418.723 129.862H435.745V146.883H418.723V129.862ZM435.745 129.862H452.766V146.883H435.745V129.862ZM163.404 146.883H180.426V163.904H163.404V146.883ZM180.426 146.883H197.447V163.904H180.426V146.883ZM197.447 146.883H214.468V163.904H197.447V146.883ZM265.532 146.883H282.553V163.904H265.532V146.883ZM282.553 146.883H299.574V163.904H282.553V146.883ZM299.574 146.883H316.596V163.904H299.574V146.883ZM44.2553 163.904H61.2766V180.926H44.2553V163.904ZM61.2766 163.904H78.2978V180.926H61.2766V163.904ZM129.362 163.904H146.383V180.926H129.362V163.904ZM248.511 163.904H265.532V180.926H248.511V163.904ZM265.532 163.904H282.553V180.926H265.532V163.904ZM299.574 163.904H316.596V180.926H299.574V163.904ZM333.617 163.904H350.638V180.926H333.617V163.904ZM350.638 163.904H367.66V180.926H350.638V163.904ZM384.681 163.904H401.702V180.926H384.681V163.904ZM44.2553 180.926H61.2766V197.947H44.2553V180.926ZM61.2766 180.926H78.2978V197.947H61.2766V180.926ZM95.3191 180.926H112.34V197.947H95.3191V180.926ZM146.383 180.926H163.404V197.947H146.383V180.926ZM197.447 180.926H214.468V197.947H197.447V180.926ZM214.468 180.926H231.489V197.947H214.468V180.926ZM231.489 180.926H248.511V197.947H231.489V180.926ZM248.511 180.926H265.532V197.947H248.511V180.926ZM265.532 180.926H282.553V197.947H265.532V180.926ZM282.553 180.926H299.574V197.947H282.553V180.926ZM299.574 180.926H316.596V197.947H299.574V180.926ZM333.617 180.926H350.638V197.947H333.617V180.926ZM350.638 180.926H367.66V197.947H350.638V180.926ZM384.681 180.926H401.702V197.947H384.681V180.926ZM418.723 180.926H435.745V197.947H418.723V180.926ZM435.745 180.926H452.766V197.947H435.745V180.926ZM129.362 197.947H146.383V214.968H129.362V197.947ZM214.468 197.947H231.489V214.968H214.468V197.947ZM282.553 197.947H299.574V214.968H282.553V197.947ZM316.596 197.947H333.617V214.968H316.596V197.947ZM350.638 197.947H367.66V214.968H350.638V197.947ZM384.681 197.947H401.702V214.968H384.681V197.947ZM401.702 197.947H418.723V214.968H401.702V197.947ZM435.745 197.947H452.766V214.968H435.745V197.947ZM27.234 214.968H44.2553V231.989H27.234V214.968ZM44.2553 214.968H61.2766V231.989H44.2553V214.968ZM95.3191 214.968H112.34V231.989H95.3191V214.968ZM146.383 214.968H163.404V231.989H146.383V214.968ZM180.426 214.968H197.447V231.989H180.426V214.968ZM197.447 214.968H214.468V231.989H197.447V214.968ZM248.511 214.968H265.532V231.989H248.511V214.968ZM282.553 214.968H299.574V231.989H282.553V214.968ZM316.596 214.968H333.617V231.989H316.596V214.968ZM350.638 214.968H367.66V231.989H350.638V214.968ZM384.681 214.968H401.702V231.989H384.681V214.968ZM27.234 231.989H44.2553V249.011H27.234V231.989ZM44.2553 231.989H61.2766V249.011H44.2553V231.989ZM78.2978 231.989H95.3191V249.011H78.2978V231.989ZM129.362 231.989H146.383V249.011H129.362V231.989ZM146.383 231.989H163.404V249.011H146.383V231.989ZM163.404 231.989H180.426V249.011H163.404V231.989ZM180.426 231.989H197.447V249.011H180.426V231.989ZM197.447 231.989H214.468V249.011H197.447V231.989ZM248.511 231.989H265.532V249.011H248.511V231.989ZM282.553 231.989H299.574V249.011H282.553V231.989ZM299.574 231.989H316.596V249.011H299.574V231.989ZM333.617 231.989H350.638V249.011H333.617V231.989ZM350.638 231.989H367.66V249.011H350.638V231.989ZM435.745 231.989H452.766V249.011H435.745V231.989ZM61.2766 249.011H78.2978V266.032H61.2766V249.011ZM78.2978 249.011H95.3191V266.032H78.2978V249.011ZM95.3191 249.011H112.34V266.032H95.3191V249.011ZM197.447 249.011H214.468V266.032H197.447V249.011ZM214.468 249.011H231.489V266.032H214.468V249.011ZM231.489 249.011H248.511V266.032H231.489V249.011ZM282.553 249.011H299.574V266.032H282.553V249.011ZM299.574 249.011H316.596V266.032H299.574V249.011ZM333.617 249.011H350.638V266.032H333.617V249.011ZM350.638 249.011H367.66V266.032H350.638V249.011ZM418.723 249.011H435.745V266.032H418.723V249.011ZM435.745 249.011H452.766V266.032H435.745V249.011ZM27.234 266.032H44.2553V283.053H27.234V266.032ZM44.2553 266.032H61.2766V283.053H44.2553V266.032ZM78.2978 266.032H95.3191V283.053H78.2978V266.032ZM112.34 266.032H129.362V283.053H112.34V266.032ZM129.362 266.032H146.383V283.053H129.362V266.032ZM163.404 266.032H180.426V283.053H163.404V266.032ZM180.426 266.032H197.447V283.053H180.426V266.032ZM197.447 266.032H214.468V283.053H197.447V266.032ZM231.489 266.032H248.511V283.053H231.489V266.032ZM282.553 266.032H299.574V283.053H282.553V266.032ZM299.574 266.032H316.596V283.053H299.574V266.032ZM333.617 266.032H350.638V283.053H333.617V266.032ZM384.681 266.032H401.702V283.053H384.681V266.032ZM401.702 266.032H418.723V283.053H401.702V266.032ZM435.745 266.032H452.766V283.053H435.745V266.032ZM61.2766 283.053H78.2978V300.074H61.2766V283.053ZM78.2978 283.053H95.3191V300.074H78.2978V283.053ZM95.3191 283.053H112.34V300.074H95.3191V283.053ZM146.383 283.053H163.404V300.074H146.383V283.053ZM197.447 283.053H214.468V300.074H197.447V283.053ZM265.532 283.053H282.553V300.074H265.532V283.053ZM282.553 283.053H299.574V300.074H282.553V283.053ZM299.574 283.053H316.596V300.074H299.574V283.053ZM316.596 283.053H333.617V300.074H316.596V283.053ZM333.617 283.053H350.638V300.074H333.617V283.053ZM350.638 283.053H367.66V300.074H350.638V283.053ZM367.66 283.053H384.681V300.074H367.66V283.053ZM384.681 283.053H401.702V300.074H384.681V283.053ZM27.234 300.074H44.2553V317.096H27.234V300.074ZM44.2553 300.074H61.2766V317.096H44.2553V300.074ZM61.2766 300.074H78.2978V317.096H61.2766V300.074ZM95.3191 300.074H112.34V317.096H95.3191V300.074ZM129.362 300.074H146.383V317.096H129.362V300.074ZM163.404 300.074H180.426V317.096H163.404V300.074ZM214.468 300.074H231.489V317.096H214.468V300.074ZM299.574 300.074H316.596V317.096H299.574V300.074ZM316.596 300.074H333.617V317.096H316.596V300.074ZM333.617 300.074H350.638V317.096H333.617V300.074ZM350.638 300.074H367.66V317.096H350.638V300.074ZM367.66 300.074H384.681V317.096H367.66V300.074ZM418.723 300.074H435.745V317.096H418.723V300.074ZM163.404 317.096H180.426V334.117H163.404V317.096ZM180.426 317.096H197.447V334.117H180.426V317.096ZM197.447 317.096H214.468V334.117H197.447V317.096ZM214.468 317.096H231.489V334.117H214.468V317.096ZM248.511 317.096H265.532V334.117H248.511V317.096ZM265.532 317.096H282.553V334.117H265.532V317.096ZM299.574 317.096H316.596V334.117H299.574V317.096ZM367.66 317.096H384.681V334.117H367.66V317.096ZM435.745 317.096H452.766V334.117H435.745V317.096ZM27.234 334.117H44.2553V351.138H27.234V334.117ZM44.2553 334.117H61.2766V351.138H44.2553V334.117ZM61.2766 334.117H78.2978V351.138H61.2766V334.117ZM78.2978 334.117H95.3191V351.138H78.2978V334.117ZM95.3191 334.117H112.34V351.138H95.3191V334.117ZM112.34 334.117H129.362V351.138H112.34V334.117ZM129.362 334.117H146.383V351.138H129.362V334.117ZM197.447 334.117H214.468V351.138H197.447V334.117ZM214.468 334.117H231.489V351.138H214.468V334.117ZM265.532 334.117H282.553V351.138H265.532V334.117ZM299.574 334.117H316.596V351.138H299.574V334.117ZM333.617 334.117H350.638V351.138H333.617V334.117ZM367.66 334.117H384.681V351.138H367.66V334.117ZM435.745 334.117H452.766V351.138H435.745V334.117ZM27.234 351.138H44.2553V368.16H27.234V351.138ZM129.362 351.138H146.383V368.16H129.362V351.138ZM180.426 351.138H197.447V368.16H180.426V351.138ZM197.447 351.138H214.468V368.16H197.447V351.138ZM231.489 351.138H248.511V368.16H231.489V351.138ZM248.511 351.138H265.532V368.16H248.511V351.138ZM299.574 351.138H316.596V368.16H299.574V351.138ZM367.66 351.138H384.681V368.16H367.66V351.138ZM418.723 351.138H435.745V368.16H418.723V351.138ZM27.234 368.16H44.2553V385.181H27.234V368.16ZM61.2766 368.16H78.2978V385.181H61.2766V368.16ZM78.2978 368.16H95.3191V385.181H78.2978V368.16ZM95.3191 368.16H112.34V385.181H95.3191V368.16ZM129.362 368.16H146.383V385.181H129.362V368.16ZM180.426 368.16H197.447V385.181H180.426V368.16ZM197.447 368.16H214.468V385.181H197.447V368.16ZM265.532 368.16H282.553V385.181H265.532V368.16ZM282.553 368.16H299.574V385.181H282.553V368.16ZM299.574 368.16H316.596V385.181H299.574V368.16ZM316.596 368.16H333.617V385.181H316.596V368.16ZM333.617 368.16H350.638V385.181H333.617V368.16ZM350.638 368.16H367.66V385.181H350.638V368.16ZM367.66 368.16H384.681V385.181H367.66V368.16ZM418.723 368.16H435.745V385.181H418.723V368.16ZM435.745 368.16H452.766V385.181H435.745V368.16ZM27.234 385.181H44.2553V402.202H27.234V385.181ZM61.2766 385.181H78.2978V402.202H61.2766V385.181ZM78.2978 385.181H95.3191V402.202H78.2978V385.181ZM95.3191 385.181H112.34V402.202H95.3191V385.181ZM129.362 385.181H146.383V402.202H129.362V385.181ZM180.426 385.181H197.447V402.202H180.426V385.181ZM197.447 385.181H214.468V402.202H197.447V385.181ZM214.468 385.181H231.489V402.202H214.468V385.181ZM231.489 385.181H248.511V402.202H231.489V385.181ZM282.553 385.181H299.574V402.202H282.553V385.181ZM316.596 385.181H333.617V402.202H316.596V385.181ZM367.66 385.181H384.681V402.202H367.66V385.181ZM401.702 385.181H418.723V402.202H401.702V385.181ZM418.723 385.181H435.745V402.202H418.723V385.181ZM27.234 402.202H44.2553V419.223H27.234V402.202ZM61.2766 402.202H78.2978V419.223H61.2766V402.202ZM78.2978 402.202H95.3191V419.223H78.2978V402.202ZM95.3191 402.202H112.34V419.223H95.3191V402.202ZM129.362 402.202H146.383V419.223H129.362V402.202ZM163.404 402.202H180.426V419.223H163.404V402.202ZM248.511 402.202H265.532V419.223H248.511V402.202ZM265.532 402.202H282.553V419.223H265.532V402.202ZM282.553 402.202H299.574V419.223H282.553V402.202ZM299.574 402.202H316.596V419.223H299.574V402.202ZM316.596 402.202H333.617V419.223H316.596V402.202ZM350.638 402.202H367.66V419.223H350.638V402.202ZM367.66 402.202H384.681V419.223H367.66V402.202ZM384.681 402.202H401.702V419.223H384.681V402.202ZM418.723 402.202H435.745V419.223H418.723V402.202ZM435.745 402.202H452.766V419.223H435.745V402.202ZM27.234 419.223H44.2553V436.245H27.234V419.223ZM129.362 419.223H146.383V436.245H129.362V419.223ZM163.404 419.223H180.426V436.245H163.404V419.223ZM180.426 419.223H197.447V436.245H180.426V419.223ZM197.447 419.223H214.468V436.245H197.447V419.223ZM248.511 419.223H265.532V436.245H248.511V419.223ZM299.574 419.223H316.596V436.245H299.574V419.223ZM316.596 419.223H333.617V436.245H316.596V419.223ZM333.617 419.223H350.638V436.245H333.617V419.223ZM350.638 419.223H367.66V436.245H350.638V419.223ZM367.66 419.223H384.681V436.245H367.66V419.223ZM27.234 436.245H44.2553V453.266H27.234V436.245ZM44.2553 436.245H61.2766V453.266H44.2553V436.245ZM61.2766 436.245H78.2978V453.266H61.2766V436.245ZM78.2978 436.245H95.3191V453.266H78.2978V436.245ZM95.3191 436.245H112.34V453.266H95.3191V436.245ZM112.34 436.245H129.362V453.266H112.34V436.245ZM129.362 436.245H146.383V453.266H129.362V436.245ZM197.447 436.245H214.468V453.266H197.447V436.245ZM231.489 436.245H248.511V453.266H231.489V436.245ZM299.574 436.245H316.596V453.266H299.574V436.245ZM333.617 436.245H350.638V453.266H333.617V436.245ZM384.681 436.245H401.702V453.266H384.681V436.245ZM435.745 436.245H452.766V453.266H435.745V436.245Z" fill="#004F82"/>
</svg>
