<svg width="113" height="106" viewBox="0 0 113 106" fill="none" xmlns="http://www.w3.org/2000/svg">
<g clip-path="url(#clip0_877_27084)">
<path d="M56.4047 -0.159424C35.9092 -0.159424 19.2539 16.5182 19.2539 36.9913C19.2539 57.4644 35.9316 74.1421 56.4047 74.1421C76.8778 74.1421 93.5554 57.4644 93.5554 36.9913C93.5554 16.5182 76.9001 -0.159424 56.4047 -0.159424ZM56.4047 66.194C40.3075 66.194 27.202 53.0885 27.202 36.9913C27.202 20.8942 40.3075 7.81102 56.4047 7.81102C72.5018 7.81102 85.6073 20.9165 85.6073 37.0137C85.6073 53.1108 72.5018 66.2163 56.4047 66.2163V66.194Z" fill="currentcolor"/>
<path d="M74.8908 18.6057C73.8638 17.5787 72.167 17.5787 71.14 18.6057L58.7266 31.0191C57.9676 30.7288 57.1638 30.5502 56.2931 30.5502C55.4224 30.5502 54.6186 30.7065 53.8595 31.0191L46.7598 23.9193C45.7328 22.8923 44.036 22.8923 43.009 23.9193C41.982 24.9463 41.982 26.6431 43.009 27.6701L50.1087 34.7699C49.8185 35.5289 49.6399 36.3327 49.6399 37.2034C49.6399 40.8649 52.6093 43.8343 56.2708 43.8343C59.9323 43.8343 62.9016 40.8649 62.9016 37.2034C62.9016 36.355 62.7454 35.5289 62.4328 34.7699L74.8461 22.3565C75.8731 21.3295 75.8731 19.6327 74.8461 18.6057H74.8908Z" fill="currentcolor"/>
<path d="M10.5915 85.1376C14.8111 85.1823 18.4279 87.7498 19.8568 91.7685C20.0801 92.3936 20.3703 92.6169 21.0178 92.6169C24.2104 92.5723 27.4031 92.5723 30.5957 92.6169C31.1985 92.6169 31.4218 92.416 31.6227 91.8801C33.0962 87.7498 36.7131 85.16 40.9997 85.16C45.3087 85.16 48.9478 87.7275 50.4437 91.9248C50.6446 92.4606 50.8679 92.6169 51.4037 92.6169C54.6633 92.6169 57.9229 92.6169 61.1826 92.6169C61.7184 92.6169 61.964 92.4606 62.1649 91.9248C63.6608 87.7051 67.2776 85.1376 71.6089 85.16C75.8955 85.16 79.5347 87.7498 80.9859 91.8801C81.2091 92.5053 81.4994 92.6392 82.1022 92.6392C85.2279 92.6169 88.3758 92.5946 91.5015 92.6392C92.2606 92.6392 92.5508 92.416 92.7964 91.7239C94.4039 87.1916 99.0701 84.4679 103.759 85.2716C108.581 86.0977 112.086 90.228 112.086 95.0951C112.086 99.8506 108.648 104.026 104.049 104.874C99.1594 105.767 94.4486 103.133 92.7964 98.511C92.5285 97.7743 92.1936 97.5287 91.4345 97.551C88.3089 97.5956 85.1609 97.5956 82.0352 97.551C81.4547 97.551 81.1868 97.7073 80.9859 98.2878C79.4677 102.485 75.8285 105.097 71.5419 105.075C67.2999 105.075 63.6608 102.463 62.1649 98.3101C61.964 97.7743 61.7407 97.551 61.1379 97.551C57.9229 97.5733 54.6856 97.5733 51.4707 97.551C50.8679 97.551 50.6223 97.7743 50.4437 98.3101C48.9255 102.485 45.264 105.097 40.9774 105.075C36.7354 105.075 33.1186 102.44 31.6227 98.2878C31.4218 97.7296 31.1539 97.551 30.5734 97.551C27.4031 97.5733 24.2551 97.5956 21.0848 97.551C20.3926 97.551 20.0801 97.7519 19.8568 98.4217C18.3833 102.641 14.3646 105.298 9.94399 105.053C5.54574 104.829 1.81726 101.704 0.790261 97.3724C-0.705593 91.0987 4.11686 85.0707 10.5915 85.16V85.1376ZM71.6759 88.6205C68.1483 88.5759 65.2013 91.4559 65.1566 95.0058C65.1343 98.5557 67.9697 101.503 71.5196 101.57C75.0471 101.637 78.0835 98.6673 78.0835 95.1174C78.0835 91.5899 75.2034 88.6652 71.6759 88.6205ZM10.5468 88.6205C6.95228 88.6205 4.00523 91.5453 4.02756 95.0951C4.02756 98.6003 6.99694 101.547 10.5021 101.547C14.0074 101.547 16.9544 98.6227 16.9544 95.0951C16.9544 91.5229 14.0967 88.6428 10.5468 88.6205ZM41.1783 91.188C39.0127 91.1434 37.2043 92.8402 37.1596 94.9835C37.1149 97.1045 38.8564 98.9575 40.9997 99.0022C43.0984 99.0468 44.9068 97.3277 44.9738 95.2291C45.0407 93.0411 43.344 91.255 41.2006 91.188H41.1783ZM98.2887 95.0728C98.2887 97.2384 100.052 99.0245 102.196 99.0022C104.339 99.0022 106.103 97.1938 106.103 95.0505C106.103 92.9071 104.317 91.1657 102.129 91.188C100.008 91.188 98.2887 92.9295 98.2887 95.0728Z" fill="currentcolor"/>
</g>
<defs>
<clipPath id="clip0_877_27084">
<rect width="111.631" height="105" fill="white" transform="translate(0.5 0.0302734)"/>
</clipPath>
</defs>
</svg>
