<svg width="157" height="106" viewBox="0 0 157 106" fill="none" xmlns="http://www.w3.org/2000/svg">
<path d="M64.6314 0.0302734L0.5 54.2072L8.08943 63.3139L72.2208 9.13696L64.6314 0.0302734ZM20.1301 39.6382L24.4228 36.0113L33.6921 39.6666L29.3993 43.2936L20.1301 39.6382ZM23.5547 48.2315L19.1252 51.9742L9.85602 48.3189L14.2855 44.5761L23.5547 48.2315ZM30.2695 31.0734L34.6991 27.3307L43.9683 30.986L39.5387 34.7288L30.2695 31.0734ZM40.5457 22.3928L44.908 18.709L54.1772 22.3644L49.815 26.0481L40.5457 22.3928ZM50.7525 13.769L55.182 10.0262L64.4512 13.6816L60.0217 17.4243L50.7525 13.769ZM69.6946 8.50334L61.0309 5.08615L64.4447 2.20207L69.6968 8.50115L69.6946 8.50334ZM2.66159 54.3973L4.00716 53.259L13.2764 56.9143L8.27824 61.1377L2.66159 54.3973Z" fill="currentcolor"/>
<path d="M83.9966 9.13696L148.128 63.3117L155.717 54.205L91.586 0.0302734L83.9966 9.13696ZM126.818 43.2958L122.525 39.6688L131.795 36.0135L136.087 39.6404L126.818 43.2958ZM141.934 44.5783L146.364 48.3211L137.094 51.9764L132.665 48.2337L141.934 44.5783ZM116.679 34.7309L112.249 30.9882L121.518 27.3329L125.948 31.0756L116.679 34.7309ZM106.402 26.0503L102.04 22.3666L111.309 18.7112L115.672 22.395L106.402 26.0503ZM96.1956 17.4265L91.7661 13.6838L101.035 10.0284L105.465 13.7711L96.1956 17.4265ZM91.777 2.20644L95.1908 5.09052L86.5271 8.50771L91.7792 2.20862L91.777 2.20644ZM147.941 61.1377L142.943 56.9143L152.212 53.259L153.558 54.3973L147.941 61.1377Z" fill="currentcolor"/>
<path d="M132.632 105.03H150.452V33.2693H132.632V105.03Z" fill="currentcolor"/>
<path d="M23.5093 33.2693H5.68921V105.03H23.5093V33.2693Z" fill="currentcolor"/>
<path d="M14.6004 40.2261L10.7654 44.0868L14.6004 47.9478L18.4354 44.0868L14.6004 40.2261Z" fill="white"/>
<path d="M142.079 40.2241L138.244 44.0851L142.079 47.9458L145.914 44.0851L142.079 40.2241Z" fill="white"/>
</svg>
