<svg width="130" height="105" viewBox="0 0 130 105" fill="none" xmlns="http://www.w3.org/2000/svg">
<path d="M65.206 48.326C69.0412 48.326 72.1502 45.217 72.1502 41.3818C72.1502 37.5466 69.0412 34.4375 65.206 34.4375C61.3708 34.4375 58.2617 37.5466 58.2617 41.3818C58.2617 45.217 61.3708 48.326 65.206 48.326Z" fill="currentcolor"/>
<path d="M81.1261 70.7789C67.8292 75.3313 54.8923 73.9424 42.2126 67.8984C30.9732 62.523 21.457 54.8072 12.841 45.9083C11.9151 44.9309 11.015 43.825 10.4749 42.5905C9.75471 41.0473 10.3205 39.5041 11.4522 38.2953C21.277 27.9047 32.182 18.9543 45.5304 13.3732C51.8317 10.7498 58.4158 9.25811 65.2572 9.18095C74.4133 9.28383 82.875 11.9072 90.8995 16.1252C101.624 21.7577 110.729 29.4478 118.985 38.2182C120.657 39.9928 120.785 42.539 119.139 44.2622C112.838 50.9493 106.1 57.0191 98.5639 62.0086L105.199 68.6442C112.555 63.5775 119.242 57.6363 125.441 51.0779C130.79 45.4196 130.867 37.2151 125.415 31.6597C121.84 28.0076 118.162 24.4583 114.33 21.1148C106.923 14.6592 98.7696 9.28383 89.6907 5.37448C79.5829 1.02789 69.1151 -0.97822 58.1329 0.462068C49.4912 1.59372 41.4668 4.57717 33.8538 8.74372C22.7687 14.8135 13.2525 22.8894 4.63654 32.0455C3.06766 33.7173 2.01316 35.6977 1.44733 37.9353C1.24158 38.7326 1.08726 39.5556 0.907227 40.3786V42.3847C0.984385 42.5905 1.08726 42.7705 1.11298 42.9763C1.47305 46.3198 2.93906 49.1489 5.33097 51.4379C9.29176 55.2187 13.1754 59.1281 17.3419 62.6516C25.9579 69.9559 35.4741 75.82 46.2248 79.4721C54.0693 82.1469 62.1452 83.33 70.4268 82.507C76.6509 81.8897 82.5921 80.2951 88.3018 77.9804L81.1004 70.7789H81.1261Z" fill="currentcolor"/>
<path d="M83.9293 21.526C72.6899 10.8267 55.2522 11.5726 44.8615 22.5548C34.3937 33.717 34.9338 51.0005 45.8903 61.4168C56.3581 71.3703 71.8669 71.2931 82.2061 62.8829L90.2306 70.9073L88.173 72.9649L118.342 103.134C119.782 104.574 122.097 104.574 123.512 103.134L126.521 100.125C127.961 98.6843 127.961 96.3695 126.521 94.955L96.3518 64.7861L94.2943 66.8436L86.2698 58.8192C95.3487 47.6055 94.2428 31.428 83.8779 21.5775L83.9293 21.526ZM53.066 52.9552C46.7648 46.2424 46.9191 35.7746 53.4004 29.6276C60.0617 23.3264 70.5552 23.455 76.7279 29.9106C83.0549 36.5204 82.952 47.014 76.4964 53.2381C69.8865 59.6165 59.1873 59.4879 53.066 52.9552Z" fill="currentcolor"/>
</svg>
