<svg width="99" height="105" viewBox="0 0 99 105" fill="none" xmlns="http://www.w3.org/2000/svg">
<path d="M77.3805 13.9641C80.8603 13.9641 84.2278 13.9641 87.5729 13.9641C93.859 13.9641 98.394 18.4766 98.394 24.7851C98.394 47.9314 98.394 71.1001 98.394 94.2463C98.394 100.465 93.8366 105 87.6179 105C69.1188 105 50.6422 105 32.1432 105C25.9244 105 21.367 100.443 21.367 94.2463C21.367 93.1912 21.367 92.1584 21.367 90.991C17.8872 90.991 14.4973 91.0359 11.1297 90.991C10.0521 90.991 8.92957 90.8563 7.89686 90.5645C3.4966 89.3521 0.353561 85.2438 0.353561 80.6863C0.353561 57.2482 0.353561 33.7877 0.353561 10.3496C0.353561 4.64721 5.02323 0 10.7481 0C29.494 0 48.24 0 66.986 0C72.7109 0 77.3356 4.64721 77.3805 10.3496C77.3805 11.517 77.3805 12.6844 77.3805 13.9865V13.9641ZM70.376 45.5965C70.376 34.1469 70.376 22.6972 70.376 11.2476C70.376 8.30661 69.029 6.98204 66.1104 6.98204C47.9482 6.98204 29.7859 6.98204 11.6011 6.98204C8.66016 6.98204 7.3356 8.30661 7.3356 11.2476C7.3356 34.0795 7.3356 56.9115 7.3356 79.7434C7.3356 82.6844 8.68261 84.0314 11.6011 84.0314C29.7634 84.0314 47.9257 84.0314 66.1104 84.0314C69.0514 84.0314 70.376 82.6844 70.376 79.7659C70.376 68.3836 70.376 57.0013 70.376 45.619V45.5965ZM28.3491 91.0135C28.3491 92.136 28.3491 93.1238 28.3491 94.0892C28.3491 96.5587 29.8084 98.018 32.3228 98.018C50.7096 98.018 69.0964 98.018 87.4607 98.018C89.9527 98.018 91.3895 96.5587 91.3895 94.0667C91.3895 71.0103 91.3895 47.9763 91.3895 24.9198C91.3895 22.4278 89.9302 20.991 87.4382 20.9686C84.385 20.9686 81.3093 20.9686 78.2561 20.9686C77.9867 20.9686 77.6948 21.0135 77.3805 21.0584V22.4278C77.3805 41.6453 77.3805 60.8627 77.3805 80.0802C77.3805 86.5234 72.8904 90.991 66.4472 91.0135C54.2342 91.0135 42.0213 91.0135 29.7859 91.0135H28.3491Z" fill="currentcolor"/>
<path d="M30.8411 13.5598H18.471C15.7805 13.5598 13.5993 15.7409 13.5993 18.4315V30.8016C13.5993 33.4922 15.7805 35.6733 18.471 35.6733H30.8411C33.5317 35.6733 35.7129 33.4922 35.7129 30.8016V18.4315C35.7129 15.7409 33.5317 13.5598 30.8411 13.5598Z" stroke="currentcolor" stroke-width="5" stroke-miterlimit="10"/>
<path d="M63.2819 43.8453H13.6443C12.9747 43.8453 12.432 44.3881 12.432 45.0576V47.1231C12.432 47.7926 12.9747 48.3354 13.6443 48.3354H63.2819C63.9514 48.3354 64.4942 47.7926 64.4942 47.1231V45.0576C64.4942 44.3881 63.9514 43.8453 63.2819 43.8453Z" fill="currentcolor"/>
<path d="M63.2819 53.3193H13.6443C12.9747 53.3193 12.432 53.8621 12.432 54.5316V56.5971C12.432 57.2666 12.9747 57.8094 13.6443 57.8094H63.2819C63.9514 57.8094 64.4942 57.2666 64.4942 56.5971V54.5316C64.4942 53.8621 63.9514 53.3193 63.2819 53.3193Z" fill="currentcolor"/>
<path d="M63.2819 72.2674H13.6443C12.9747 72.2674 12.432 72.8101 12.432 73.4797V75.5451C12.432 76.2146 12.9747 76.7574 13.6443 76.7574H63.2819C63.9514 76.7574 64.4942 76.2146 64.4942 75.5451V73.4797C64.4942 72.8101 63.9514 72.2674 63.2819 72.2674Z" fill="currentcolor"/>
<path d="M63.2819 62.7933H13.6443C12.9747 62.7933 12.432 63.3361 12.432 64.0057V66.0711C12.432 66.7406 12.9747 67.2834 13.6443 67.2834H63.2819C63.9514 67.2834 64.4942 66.7406 64.4942 66.0711V64.0057C64.4942 63.3361 63.9514 62.7933 63.2819 62.7933Z" fill="currentcolor"/>
</svg>
