<svg width="177" height="106" viewBox="0 0 177 106" fill="none" xmlns="http://www.w3.org/2000/svg">
<path d="M63.127 28.0939C63.127 13.9714 74.7592 2.40737 88.9158 2.44148C103.038 2.44148 114.637 14.1079 114.568 28.2304C114.5 42.387 102.902 53.951 88.7795 53.8828C74.6229 53.8146 63.127 42.2505 63.127 28.0939ZM69.7447 28.0939C69.7447 38.6687 78.2046 47.2309 88.7112 47.265C99.3542 47.2991 107.951 38.7711 107.985 28.1963C107.985 17.6556 99.5248 9.05927 88.9841 9.02515C78.307 8.99104 69.7447 17.4509 69.7447 28.0939Z" fill="currentcolor"/>
<path d="M88.7229 56.5952H88.6205C73.0653 56.527 60.4097 43.8031 60.4097 28.2479C60.4097 20.7432 63.3774 13.6478 68.7672 8.2922C74.1228 2.93657 81.184 -0.133538 88.7569 0.0370236C96.2616 0.0370236 103.357 3.03891 108.713 8.39454C114.068 13.7843 117.002 20.8796 116.968 28.3843C116.9 43.9395 104.244 56.5952 88.7229 56.5952ZM65.5606 28.2479C65.5606 41.0059 75.8966 51.4442 88.6546 51.4784H88.7229C101.447 51.4784 111.817 41.1423 111.851 28.3843C111.851 22.2441 109.463 16.445 105.097 12.0104C100.696 7.60995 94.8971 5.15387 88.7569 5.15387H88.7229C82.5827 5.15387 76.7835 7.57584 72.3831 11.9422C67.9826 16.3086 65.5606 22.1077 65.5606 28.2479ZM88.6887 50.0115H88.5864C76.7153 49.9433 67.0616 40.1872 67.0616 28.282C67.0616 22.4829 69.3129 17.0249 73.4064 12.9656C77.4999 8.87211 82.992 6.79126 88.8594 6.65481C100.765 6.68892 110.418 16.445 110.384 28.3843C110.384 34.1834 108.099 39.6073 104.005 43.7008C99.9116 47.7601 94.4537 50.0115 88.6546 50.0115H88.6887ZM88.7911 11.7717C84.3224 11.7717 80.1607 13.4773 77.0224 16.5815C73.9182 19.6857 72.1784 23.8133 72.1784 28.282C72.1784 37.39 79.5466 44.8606 88.5864 44.8947C93.1233 44.8606 97.2509 43.1891 100.423 40.0507C103.562 36.9465 105.301 32.7848 105.301 28.3502C105.301 19.2422 97.9332 11.7717 88.8594 11.7375H88.7911V11.7717Z" fill="currentcolor"/>
<path d="M133.091 101.674H126.508C126.167 89.9053 121.63 80.1833 112.59 72.6786C105.938 67.1524 98.1945 64.3211 89.53 64.2188C79.0916 64.0823 70.0518 67.6641 62.5812 74.9641C55.1106 82.2301 51.4606 91.2357 51.1877 101.674H44.6382C45.184 86.3235 51.256 73.9067 63.9458 65.4468C79.1598 55.3155 95.2607 54.7014 111.089 63.8094C125.416 72.0305 132.307 85.0614 133.057 101.674H133.091Z" fill="currentcolor"/>
<path d="M135.752 104.233H123.983L123.915 101.743C123.608 90.6567 119.241 81.5487 110.952 74.658C104.778 69.5412 97.5801 66.8804 89.4954 66.7781C79.8417 66.6416 71.3136 70.0188 64.3547 76.8071C57.5664 83.4249 53.9846 91.8165 53.7458 101.743L53.6775 104.233H41.9771L42.0794 101.573C42.6934 84.8235 49.55 71.9632 62.5468 63.2986C78.5454 52.6215 95.7721 52.0075 112.385 61.5589C126.985 69.9505 134.797 83.3908 135.649 101.539L135.786 104.199L135.752 104.233ZM128.895 99.1165H130.328C128.963 84.1754 122.073 73.0548 109.826 66.0276C94.8169 57.3972 79.8416 57.9089 65.378 67.5968C54.5303 74.8286 48.4925 85.4375 47.3667 99.1507H48.7654C49.5499 88.917 53.6093 80.1842 60.807 73.1571C68.7552 65.3795 78.5454 61.4907 89.5978 61.6954C98.8763 61.8318 107.166 64.8678 114.261 70.7692C123.13 78.1034 128.042 87.6548 128.963 99.1507L128.895 99.1165Z" fill="currentcolor"/>
<path d="M60.0907 42.0797C59.8178 53.9166 50.2664 63.1952 38.5659 62.8882C26.6948 62.6153 17.5868 52.9615 17.8938 41.0563C18.2008 29.5605 27.9569 20.5207 39.7598 20.7595C50.9827 20.9983 60.3295 30.7885 60.0907 42.0797ZM24.4775 41.875C24.5116 49.9596 31.0952 56.4751 39.1116 56.4068C47.0257 56.3386 53.5411 49.7208 53.5411 41.8068C53.5411 33.8586 46.9916 27.3432 39.0434 27.275C31.027 27.2408 24.4434 33.8245 24.4775 41.875Z" fill="currentcolor"/>
<path d="M39.0775 65.4462C38.8729 65.4462 38.7023 65.4462 38.4976 65.4462C32.0845 65.2756 26.1831 62.6831 21.8167 58.112C17.4503 53.5069 15.1307 47.4349 15.3013 40.9876C15.6424 28.1614 26.5924 17.9277 39.7598 18.2006C45.8659 18.3371 51.6309 20.8955 55.9972 25.4666C60.3295 30.0035 62.7514 36.0755 62.615 42.1134C62.4785 48.5947 59.8519 54.5643 55.2468 58.9648C50.8463 63.1606 45.1495 65.4462 39.0775 65.4462ZM39.2822 23.3175C29.1167 23.3175 20.691 31.2315 20.4181 41.1241C20.2817 46.2068 22.0896 51.0167 25.5009 54.5984C28.9121 58.1802 33.5514 60.227 38.5659 60.3293C43.4098 60.4317 48.1173 58.6578 51.665 55.2807C55.2809 51.8354 57.3276 47.1279 57.4641 42.011C57.5664 37.3035 55.6902 32.5619 52.279 29.0142C48.8677 25.4325 44.3649 23.4198 39.6574 23.3175C39.521 23.3175 39.3846 23.3175 39.2481 23.3175H39.2822ZM38.9752 58.9648C34.4724 58.9648 30.2425 57.2251 27.0359 54.0527C23.7611 50.812 21.9532 46.5138 21.9191 41.9087C21.9191 37.3035 23.6929 33.0054 26.9336 29.7306C30.1742 26.4899 34.4383 24.7161 38.9411 24.7161H39.0434C48.4243 24.7843 56.0996 32.4255 56.0996 41.8063C56.0996 51.1872 48.4925 58.8966 39.1458 58.9989H38.9752V58.9648ZM38.9752 29.8329C35.8369 29.8329 32.835 31.061 30.5836 33.3465C28.298 35.632 27.0359 38.668 27.07 41.8746C27.07 45.1152 28.3663 48.1512 30.6518 50.4026C32.9032 52.6199 35.871 53.848 39.0093 53.848H39.1116C45.6612 53.7798 51.0168 48.39 50.9827 41.8063C50.9827 35.2568 45.593 29.867 39.0093 29.8329H38.9411H38.9752Z" fill="currentcolor"/>
<path d="M137.935 62.8878C126.269 62.8195 116.854 53.3363 116.922 41.704C117.025 29.9694 126.508 20.6568 138.311 20.725C149.806 20.7932 159.187 30.3446 159.153 41.9087C159.119 53.541 149.602 62.9219 137.935 62.8878ZM152.535 41.7381C152.501 33.7559 145.952 27.2404 138.004 27.2745C129.953 27.2745 123.438 33.8923 123.472 41.9428C123.472 49.8569 130.09 56.4405 138.038 56.4064C146.088 56.4064 152.57 49.8228 152.535 41.7381Z" fill="currentcolor"/>
<path d="M138.072 65.4457H137.935C131.59 65.4116 125.621 62.8873 121.186 58.3845C116.752 53.9158 114.364 47.9802 114.398 41.7036C114.5 28.7068 125.143 18.2002 138.208 18.2002H138.345C151.273 18.2684 161.78 28.9456 161.712 41.9423C161.712 48.2531 159.221 54.1545 154.719 58.5891C150.25 63.0237 144.348 65.4457 138.072 65.4457ZM137.969 60.3289H138.072C142.984 60.3289 147.623 58.4186 151.103 54.9732C154.616 51.4938 156.561 46.8545 156.561 41.9423C156.595 31.7428 148.408 23.3853 138.276 23.317H138.14C127.736 23.317 119.549 31.4016 119.446 41.7377C119.412 46.6498 121.289 51.2891 124.768 54.7686C128.282 58.3162 132.921 60.2948 137.935 60.3289H137.969ZM138.038 58.9644C128.657 58.9644 120.982 51.3232 120.947 41.9423C120.947 37.3713 122.687 33.039 125.928 29.7984C129.168 26.5236 133.467 24.7156 138.038 24.7156H138.106C147.453 24.7156 155.094 32.3227 155.128 41.7377C155.128 46.3428 153.388 50.6751 150.148 53.9499C146.907 57.1905 142.643 58.9985 138.072 58.9985L138.038 58.9644ZM138.072 29.8325H138.038C134.831 29.8325 131.829 31.0946 129.544 33.4143C127.258 35.6998 126.03 38.7358 126.03 41.9423C126.03 48.4237 131.556 53.8816 138.004 53.8816C141.176 53.8816 144.178 52.6195 146.429 50.3681C148.715 48.0826 149.943 45.0466 149.943 41.8059C149.943 35.2222 144.553 29.8666 138.038 29.8666L138.072 29.8325Z" fill="currentcolor"/>
<path d="M9.70699 101.707H3.25977C3.49855 89.9726 8.06961 80.4212 17.3482 73.4282C28.1959 65.2071 40.1692 64.0814 53.0296 68.823C51.6992 70.5969 50.6076 72.2343 49.3114 73.7011C49.0385 74.0422 48.0833 73.974 47.5034 73.8034C37.7132 71.1768 28.7075 72.7118 20.7594 79.0567C13.971 84.4806 10.4233 91.7124 9.80932 100.343C9.80932 100.752 9.77519 101.127 9.74108 101.707H9.70699Z" fill="currentcolor"/>
<path d="M12.1292 104.266H0.633301L0.70154 101.64C0.974438 88.9157 6.05714 78.7502 15.8133 71.3478C27.0362 62.8539 39.8624 61.1824 53.9508 66.3674L57.1574 67.5614L54.0872 71.689C53.1321 72.9852 52.2452 74.2133 51.256 75.339C49.8915 76.9081 47.5377 76.4306 46.8555 76.2259C37.5428 73.7357 29.5264 75.3049 22.3629 81.0016C16.325 85.8114 12.9478 92.361 12.3679 100.48L12.1974 104.198L12.1292 104.266ZM5.92072 99.1493H7.28519C8.20622 90.0073 12.1974 82.5708 19.1222 77.0446C27.5138 70.3927 37.2017 68.4483 47.9812 71.2796C48.2882 70.9044 48.5952 70.5291 48.8681 70.1198C37.7134 66.8791 27.8891 68.6188 18.8493 75.4413C10.9694 81.411 6.7053 89.1885 5.92072 99.1152V99.1493Z" fill="currentcolor"/>
<path d="M124.359 68.6868C136.469 64.2864 147.794 65.2074 158.232 72.371C168.364 79.3299 173.412 89.1883 173.822 101.639H167.545C167.136 99.2856 166.863 96.8295 166.283 94.4757C162.258 78.75 146.054 69.3691 130.397 73.7013C128.793 74.1448 127.975 73.8378 127.156 72.4733C126.406 71.2112 125.416 70.1196 124.359 68.6868Z" fill="currentcolor"/>
<path d="M176.448 104.198H165.396L165.02 102.083C164.884 101.299 164.782 100.514 164.645 99.7295C164.406 98.0921 164.168 96.5912 163.792 95.0902C162.018 88.1313 157.618 82.3322 151.375 78.7504C145.167 75.1686 137.935 74.2476 131.044 76.1579C128.315 76.9084 126.303 76.1579 124.904 73.77C124.461 73.0196 123.915 72.3373 123.301 71.5527C122.96 71.1434 122.619 70.6999 122.278 70.2224L120.197 67.4593L123.437 66.2653C136.639 61.4555 148.817 62.7859 159.631 70.2224C170.274 77.5224 175.902 88.0631 176.312 101.537L176.38 104.164L176.448 104.198ZM169.728 99.0813H171.092C170.137 88.4724 165.43 80.4219 156.765 74.4864C148.169 68.585 138.924 67.1181 128.554 70.0177C128.827 70.3929 129.066 70.7681 129.305 71.1775C129.305 71.2116 129.339 71.2457 129.373 71.2798C129.441 71.2798 129.544 71.2457 129.646 71.2116C137.867 68.9261 146.497 70.0518 153.9 74.3158C161.302 78.614 166.555 85.5388 168.704 93.828C169.148 95.5678 169.421 97.3075 169.66 98.979C169.66 99.0131 169.66 99.0472 169.66 99.1154L169.728 99.0813Z" fill="currentcolor"/>
</svg>
