<svg width="97" height="105" viewBox="0 0 97 105" fill="none" xmlns="http://www.w3.org/2000/svg">
<path fill-rule="evenodd" clip-rule="evenodd" d="M41.2739 0C34.6465 0 29.2739 5.37258 29.2739 12V93C29.2739 99.6274 34.6465 105 41.2739 105H84.4133C91.0408 105 96.4133 99.6274 96.4133 93V12C96.4133 5.37258 91.0408 0 84.4133 0H41.2739ZM41.3317 12.1154C38.018 12.1154 35.3317 14.8017 35.3317 18.1154L35.3317 25.7452H29.274V79.2548H35.3317L35.3317 83.351C35.3317 86.6647 38.018 89.351 41.3317 89.351H84.3558C87.6695 89.351 90.3558 86.6647 90.3558 83.351V18.1154C90.3558 14.8017 87.6695 12.1154 84.3558 12.1154H41.3317ZM54.5144 96.6707C54.5144 95.1373 55.7575 93.8942 57.2909 93.8942H68.3966C69.93 93.8942 71.1731 95.1373 71.1731 96.6707C71.1731 98.2041 69.93 99.4471 68.3966 99.4471H57.2909C55.7575 99.4471 54.5144 98.2041 54.5144 96.6707Z" fill="currentcolor"/>
<rect x="0.5" y="18.678" width="5.04808" height="20.1923" rx="2.52404" fill="currentcolor"/>
<rect x="20.6924" y="18.678" width="5.04808" height="20.1923" rx="2.52404" transform="rotate(90 20.6924 18.678)" fill="currentcolor"/>
<rect x="63.0962" y="18.678" width="5.04808" height="20.1923" rx="2.52404" transform="rotate(90 63.0962 18.678)" fill="currentcolor"/>
<rect x="63.0962" y="38.8701" width="5.04808" height="20.1923" rx="2.52404" transform="rotate(-180 63.0962 38.8701)" fill="currentcolor"/>
<rect x="63.0962" y="81.2739" width="5.04808" height="20.1923" rx="2.52404" transform="rotate(-180 63.0962 81.2739)" fill="currentcolor"/>
<rect x="42.9038" y="81.2739" width="5.04808" height="20.1923" rx="2.52404" transform="rotate(-90 42.9038 81.2739)" fill="currentcolor"/>
<rect x="0.5" y="81.2739" width="5.04808" height="20.1923" rx="2.52404" transform="rotate(-90 0.5 81.2739)" fill="currentcolor"/>
<rect x="0.5" y="61.0818" width="5.04808" height="20.1923" rx="2.52404" fill="currentcolor"/>
<path fill-rule="evenodd" clip-rule="evenodd" d="M16.6155 30.7932C14.4063 30.7932 12.6155 32.5841 12.6155 34.7932V42.9471C12.6155 45.1562 14.4063 46.9471 16.6155 46.9471H24.7693C26.9785 46.9471 28.7693 45.1562 28.7693 42.9471V34.7932C28.7693 32.5841 26.9785 30.7932 24.7693 30.7932H16.6155ZM18.6538 34.8317C17.5493 34.8317 16.6538 35.7272 16.6538 36.8317V40.9087C16.6538 42.0132 17.5493 42.9087 18.6538 42.9087H22.7308C23.8353 42.9087 24.7308 42.0132 24.7308 40.9087V36.8317C24.7308 35.7272 23.8353 34.8317 22.7308 34.8317H18.6538Z" fill="currentcolor"/>
<path fill-rule="evenodd" clip-rule="evenodd" d="M16.6155 53.0049C14.4063 53.0049 12.6155 54.7957 12.6155 57.0049V65.1587C12.6155 67.3679 14.4063 69.1587 16.6155 69.1587H24.7693C26.9785 69.1587 28.7693 67.3679 28.7693 65.1587V57.0049C28.7693 54.7957 26.9785 53.0049 24.7693 53.0049H16.6155ZM18.6538 57.0433C17.5493 57.0433 16.6538 57.9387 16.6538 59.0433V63.1202C16.6538 64.2248 17.5493 65.1202 18.6538 65.1202H22.7308C23.8353 65.1202 24.7308 64.2248 24.7308 63.1202V59.0433C24.7308 57.9387 23.8353 57.0433 22.7308 57.0433H18.6538Z" fill="currentcolor"/>
<path fill-rule="evenodd" clip-rule="evenodd" d="M38.8269 30.7932C36.6178 30.7932 34.8269 32.5841 34.8269 34.7932V42.9471C34.8269 45.1562 36.6178 46.9471 38.8269 46.9471H46.9808C49.1899 46.9471 50.9808 45.1562 50.9808 42.9471V34.7932C50.9808 32.5841 49.1899 30.7932 46.9807 30.7932H38.8269ZM40.8654 34.8317C39.7608 34.8317 38.8654 35.7272 38.8654 36.8317V40.9087C38.8654 42.0132 39.7608 42.9087 40.8654 42.9087H44.9423C46.0469 42.9087 46.9423 42.0132 46.9423 40.9087V36.8317C46.9423 35.7272 46.0469 34.8317 44.9423 34.8317H40.8654Z" fill="currentcolor"/>
<rect x="36.3413" y="53.5095" width="13.125" height="13.125" rx="6" fill="currentcolor"/>
</svg>
