<svg width="122" height="105" viewBox="0 0 122 105" fill="none" xmlns="http://www.w3.org/2000/svg">
<path d="M0.907227 0V75.4957H23.1371C24.0504 73.3085 25.6605 71.5299 27.9196 70.4242C30.8515 68.9581 34.0238 68.9821 37.0519 70.4963L45.0306 74.4862V67.9486H8.50145V7.57121H113.523V67.9245H93.6C93.6 68.4053 93.6 68.8619 93.6 69.3426C93.6 71.3616 93.6 73.4287 93.6 75.4957H121.093V0H0.907227Z" fill="currentcolor"/>
<path d="M55.6857 26.9732C56.6424 27.4069 57.6947 27.6959 58.5317 28.2741C60.4929 29.6473 61.2103 31.6709 61.2103 34.0077C61.2103 39.1631 61.2103 44.3185 61.2103 49.4739C61.2103 49.7629 61.2103 50.0761 61.2103 50.4857C64.7978 48.9439 67.7155 49.7388 69.9876 52.7983C73.9098 49.6907 79.6497 51.7384 80.5824 57.0383C81.8499 56.3638 83.1653 56.0747 84.5764 56.2674C87.5898 56.6528 90.2684 59.1583 90.2684 62.9646C90.2684 70.529 90.3641 78.1176 90.1249 85.682C90.0053 90.0906 88.1877 93.9933 85.3656 97.39C82.2087 101.172 78.2147 103.605 73.4076 104.569C71.9965 104.858 70.5615 104.954 69.1266 104.979C65.9218 105.027 62.7171 104.979 59.5123 104.979C53.7724 105.027 48.8218 103.051 44.6126 99.1246C38.5618 93.4633 32.511 87.7538 26.4841 82.0443C26.1015 81.683 25.7427 81.1289 25.6949 80.6471C25.3601 77.4912 26.5081 74.6726 29.4736 73.179C31.5544 72.1431 33.659 72.2154 35.7158 73.2513C38.9205 74.8653 42.1014 76.4794 45.3061 78.0694C45.5931 78.2139 45.904 78.3585 46.2149 78.4548C47.0998 78.7198 47.913 78.2621 48.1521 77.3708C48.2478 77.0094 48.2478 76.624 48.2478 76.2385C48.2478 62.2178 48.2956 48.197 48.2239 34.1522C48.2239 30.5868 50.2568 27.6237 53.5811 26.9973C53.6289 26.9973 53.6528 26.925 53.7007 26.901C54.3464 26.901 55.0161 26.901 55.6618 26.901L55.6857 26.9732Z" fill="currentcolor"/>
</svg>
