<svg width="562" height="379" viewBox="0 0 562 379" fill="none" xmlns="http://www.w3.org/2000/svg">
<g clip-path="url(#clip0_44_693)">
<path d="M235.476 1.53499C234.766 0.68758 233.503 0.577142 232.656 1.28845L1.52907 195.515C0.684258 196.225 0.574072 197.485 1.28286 198.331L32.3976 235.46C33.1077 236.307 34.3707 236.417 35.2172 235.706L266.344 41.4795C267.189 40.7695 267.299 39.5095 266.591 38.6637L235.476 1.53499Z" fill="#0A1A3D"/>
<path d="M34.678 225.561L256.455 39.1981L233.191 11.4336L11.4146 197.796L34.678 225.561Z" fill="#0A1A3D"/>
<path d="M233.525 7.62549L7.61444 197.466L34.349 229.377L260.259 39.5361L233.525 7.62549ZM76.7636 146.415L91.8854 133.706L124.537 146.515L109.415 159.224L76.7636 146.415ZM88.8274 176.527L73.2239 189.642L40.5721 176.833L56.1756 163.718L88.8274 176.527ZM112.481 116.403L128.085 103.288L160.736 116.097L145.133 129.212L112.481 116.403ZM148.68 85.9857L164.047 73.0775L196.698 85.8862L181.332 98.7943L148.68 85.9857ZM184.635 55.7671L200.238 42.6522L232.89 55.4608L217.287 68.5757L184.635 55.7671ZM251.36 37.3159L220.841 25.3417L232.867 15.2357L251.368 37.3082L251.36 37.3159ZM15.2289 198.132L19.9688 194.143L52.6206 206.952L35.0142 221.751L15.2289 198.132Z" fill="white"/>
<path d="M326.524 1.53499C327.234 0.687579 328.497 0.577142 329.344 1.28845L560.471 195.515C561.316 196.225 561.426 197.485 560.717 198.331L529.602 235.46C528.892 236.307 527.629 236.417 526.783 235.706L295.656 41.4795C294.811 40.7695 294.701 39.5095 295.409 38.6637L326.524 1.53499Z" fill="#0A1A3D"/>
<path d="M550.585 197.801L328.808 11.4385L305.545 39.203L527.321 225.566L550.585 197.801Z" fill="#0A1A3D"/>
<path d="M301.741 39.5361L527.651 229.369L554.386 197.459L328.476 7.62549L301.741 39.5361ZM452.585 159.232L437.463 146.522L470.115 133.714L485.236 146.423L452.585 159.232ZM505.832 163.726L521.436 176.841L488.784 189.649L473.18 176.534L505.832 163.726ZM416.867 129.22L401.264 116.105L433.916 103.296L449.519 116.411L416.867 129.22ZM380.668 98.802L365.302 85.8938L397.953 73.0852L413.32 85.9934L380.668 98.802ZM344.714 68.5834L329.11 55.4685L361.762 42.6598L377.365 55.7747L344.714 68.5834ZM329.148 15.251L341.174 25.357L310.655 37.3312L329.156 15.2586L329.148 15.251ZM526.994 221.751L509.387 206.952L542.039 194.143L546.779 198.132L526.994 221.751Z" fill="white"/>
<path d="M269.532 306.824C269.532 307.929 268.637 308.824 267.532 308.824H136.422C135.318 308.824 134.422 307.929 134.422 306.824V211.343C134.422 210.609 134.824 209.934 135.469 209.585L201.028 174.042C201.623 173.72 202.34 173.72 202.934 174.042L268.486 209.585C269.131 209.934 269.532 210.609 269.532 211.343V306.824Z" fill="white" stroke="#091A3E" stroke-width="5" stroke-miterlimit="10"/>
<path d="M431.484 306.824C431.484 307.929 430.589 308.824 429.484 308.824H298.374C297.27 308.824 296.374 307.929 296.374 306.824V211.343C296.374 210.609 296.776 209.934 297.421 209.585L362.972 174.042C363.567 173.72 364.284 173.72 364.879 174.042L430.438 209.585C431.083 209.934 431.484 210.609 431.484 211.343V306.824Z" fill="white" stroke="#091A3E" stroke-width="5" stroke-miterlimit="10"/>
<path d="M485.322 176.061L504.448 195.215L523.573 176.061L504.448 156.908L485.322 176.061Z" fill="white"/>
<path d="M38.1581 176.07L57.2839 195.223L76.4098 176.07L57.2839 156.916L38.1581 176.07Z" fill="white"/>
<path d="M350.593 373.325C350.593 374.43 349.697 375.325 348.593 375.325H217.49C216.385 375.325 215.49 374.43 215.49 373.325V277.844C215.49 277.11 215.892 276.435 216.536 276.086L282.088 240.536C282.682 240.213 283.4 240.213 283.995 240.536L349.546 276.086C350.191 276.435 350.593 277.11 350.593 277.844V373.325Z" fill="white" stroke="#091A3E" stroke-width="5" stroke-miterlimit="10"/>
<path d="M215.49 373.325C215.49 374.43 214.594 375.325 213.49 375.325H126.484C125.379 375.325 124.484 374.43 124.484 373.325V310.053C124.484 309.319 124.885 308.645 125.531 308.295L169.034 284.711C169.628 284.389 170.345 284.389 170.94 284.711L214.443 308.295C215.088 308.645 215.49 309.319 215.49 310.053V373.325Z" fill="white" stroke="#091A3E" stroke-width="5" stroke-miterlimit="10"/>
<path d="M441.973 373.325C441.973 374.43 441.078 375.325 439.973 375.325H352.967C351.863 375.325 350.967 374.43 350.967 373.325V310.053C350.967 309.319 351.369 308.645 352.014 308.295L395.517 284.711C396.112 284.389 396.829 284.389 397.423 284.711L440.927 308.295C441.572 308.645 441.973 309.319 441.973 310.053V373.325Z" fill="white" stroke="#091A3E" stroke-width="5" stroke-miterlimit="10"/>
<path d="M475.066 375.555H533.839C534.943 375.555 535.839 374.659 535.839 373.555V126.098C535.839 124.993 534.943 124.098 533.839 124.098H475.066C473.961 124.098 473.066 124.993 473.066 126.098V373.555C473.066 374.659 473.961 375.555 475.066 375.555Z" fill="white" stroke="#091A3E" stroke-width="5" stroke-miterlimit="10"/>
<path d="M86.6669 124.098H27.8937C26.7891 124.098 25.8937 124.993 25.8937 126.098V373.555C25.8937 374.659 26.7891 375.555 27.8937 375.555H86.6669C87.7714 375.555 88.6669 374.659 88.6669 373.555V126.098C88.6669 124.993 87.7714 124.098 86.6669 124.098Z" fill="white" stroke="#091A3E" stroke-width="5" stroke-miterlimit="10"/>
<path d="M57.2842 148.475L43.775 162.003L57.2842 175.532L70.7934 162.003L57.2842 148.475Z" fill="#091A3E"/>
<path d="M201.978 200.315L185.766 216.551L201.978 232.787L218.19 216.551L201.978 200.315Z" fill="#091A3E"/>
<path d="M169.986 304.729L156.477 318.258L169.986 331.787L183.496 318.258L169.986 304.729Z" fill="#091A3E"/>
<path d="M363.925 200.313L347.713 216.548L363.925 232.784L380.137 216.548L363.925 200.313Z" fill="#091A3E"/>
<path d="M284.137 263.196L267.925 279.432L284.137 295.668L300.349 279.432L284.137 263.196Z" fill="#091A3E"/>
<path d="M396.098 304.734L382.589 318.263L396.098 331.791L409.607 318.263L396.098 304.734Z" fill="#091A3E"/>
<path d="M506.343 148.469L492.833 161.998L506.343 175.526L519.852 161.998L506.343 148.469Z" fill="#091A3E"/>
</g>
<defs>
<clipPath id="clip0_44_693">
<rect width="562" height="379" fill="white"/>
</clipPath>
</defs>
</svg>
