<svg width="250" height="236" viewBox="0 0 250 236" fill="none" xmlns="http://www.w3.org/2000/svg">
<g clip-path="url(#clip0_65_61)">
<path d="M125.2 0C79.3 0 42 37.35 42 83.2C42 129.05 79.35 166.4 125.2 166.4C171.05 166.4 208.4 129.05 208.4 83.2C208.4 37.35 171.1 0 125.2 0ZM125.2 148.6C89.15 148.6 59.8 119.25 59.8 83.2C59.8 47.15 89.15 17.85 125.2 17.85C161.25 17.85 190.6 47.2 190.6 83.25C190.6 119.3 161.25 148.65 125.2 148.65V148.6Z" fill="#004F82"/>
<path d="M166.6 42.025C164.3 39.725 160.5 39.725 158.2 42.025L130.4 69.8251C128.7 69.1751 126.9 68.775 124.95 68.775C123 68.775 121.2 69.125 119.5 69.8251L103.6 53.925C101.3 51.625 97.5 51.625 95.2 53.925C92.9 56.225 92.9 60.0251 95.2 62.3251L111.1 78.2251C110.45 79.9251 110.05 81.725 110.05 83.675C110.05 91.875 116.7 98.5251 124.9 98.5251C133.1 98.5251 139.75 91.875 139.75 83.675C139.75 81.775 139.4 79.9251 138.7 78.2251L166.5 50.4251C168.8 48.1251 168.8 44.325 166.5 42.025H166.6Z" fill="#004F82"/>
<path d="M22.6 191.025C32.05 191.125 40.15 196.875 43.35 205.875C43.85 207.275 44.5 207.775 45.95 207.775C53.1 207.675 60.25 207.675 67.4 207.775C68.75 207.775 69.25 207.325 69.7 206.125C73 196.875 81.1 191.075 90.7 191.075C100.35 191.075 108.5 196.825 111.85 206.225C112.3 207.425 112.8 207.775 114 207.775C121.3 207.775 128.6 207.775 135.9 207.775C137.1 207.775 137.65 207.425 138.1 206.225C141.45 196.775 149.55 191.025 159.25 191.075C168.85 191.075 177 196.875 180.25 206.125C180.75 207.525 181.4 207.825 182.75 207.825C189.75 207.775 196.8 207.725 203.8 207.825C205.5 207.825 206.15 207.325 206.7 205.775C210.3 195.625 220.75 189.525 231.25 191.325C242.05 193.175 249.9 202.425 249.9 213.325C249.9 223.975 242.2 233.325 231.9 235.225C220.95 237.225 210.4 231.325 206.7 220.975C206.1 219.325 205.35 218.775 203.65 218.825C196.65 218.925 189.6 218.925 182.6 218.825C181.3 218.825 180.7 219.175 180.25 220.475C176.85 229.875 168.7 235.725 159.1 235.675C149.6 235.675 141.45 229.825 138.1 220.525C137.65 219.325 137.15 218.825 135.8 218.825C128.6 218.875 121.35 218.875 114.15 218.825C112.8 218.825 112.25 219.325 111.85 220.525C108.45 229.875 100.25 235.725 90.65 235.675C81.15 235.675 73.05 229.775 69.7 220.475C69.25 219.225 68.65 218.825 67.35 218.825C60.25 218.875 53.2 218.925 46.1 218.825C44.55 218.825 43.85 219.275 43.35 220.775C40.05 230.225 31.05 236.175 21.15 235.625C11.3 235.125 2.95 228.125 0.650004 218.425C-2.7 204.375 8.1 190.875 22.6 191.075V191.025ZM159.4 198.825C151.5 198.725 144.9 205.175 144.8 213.125C144.75 221.075 151.1 227.675 159.05 227.825C166.95 227.975 173.75 221.325 173.75 213.375C173.75 205.475 167.3 198.925 159.4 198.825ZM22.5 198.825C14.45 198.825 7.85 205.375 7.9 213.325C7.9 221.175 14.55 227.775 22.4 227.775C30.25 227.775 36.85 221.225 36.85 213.325C36.85 205.325 30.45 198.875 22.5 198.825ZM91.1 204.575C86.25 204.475 82.2 208.275 82.1 213.075C82 217.825 85.9 221.975 90.7 222.075C95.4 222.175 99.45 218.325 99.6 213.625C99.75 208.725 95.95 204.725 91.15 204.575H91.1ZM219 213.275C219 218.125 222.95 222.125 227.75 222.075C232.55 222.075 236.5 218.025 236.5 213.225C236.5 208.425 232.5 204.525 227.6 204.575C222.85 204.575 219 208.475 219 213.275Z"/>
</g>
<defs>
<clipPath id="clip0_65_61">
<rect width="250" height="235.15" fill="white" transform="translate(0 0.425049)"/>
</clipPath>
</defs>
</svg>
