<svg width="736" height="496" viewBox="0 0 736 496" fill="none" xmlns="http://www.w3.org/2000/svg">
<g clip-path="url(#clip0_37_197)">
<path d="M307.616 1.53188C306.906 0.685831 305.644 0.575532 304.798 1.28552L1.53216 255.764C0.685983 256.474 0.575678 257.736 1.28578 258.582L42.7744 308.018C43.4844 308.864 44.7459 308.974 45.592 308.264L348.858 53.7857C349.704 53.0756 349.814 51.814 349.104 50.9679L307.616 1.53188Z" fill="#004F82"/>
<path d="M45.3602 294.616L335.454 51.1985L305.024 14.9339L14.9307 258.351L45.3602 294.616Z" fill="#004F82"/>
<path d="M305.46 9.96L9.95996 257.92L44.93 299.6L340.43 51.64L305.46 9.96ZM100.41 191.24L120.19 174.64L162.9 191.37L143.12 207.97L100.41 191.24ZM116.19 230.57L95.78 247.7L53.07 230.97L73.48 213.84L116.19 230.57ZM147.13 152.04L167.54 134.91L210.25 151.64L189.84 168.77L147.13 152.04ZM194.48 112.31L214.58 95.45L257.29 112.18L237.19 129.04L194.48 112.31ZM241.51 72.84L261.92 55.71L304.63 72.44L284.22 89.57L241.51 72.84ZM328.79 48.74L288.87 33.1L304.6 19.9L328.8 48.73L328.79 48.74ZM19.92 258.79L26.12 253.58L68.83 270.31L45.8 289.64L19.92 258.79Z" fill="white"/>
<path d="M427.504 1.53188C428.214 0.685831 429.476 0.575532 430.322 1.28552L733.588 255.764C734.434 256.474 734.544 257.736 733.834 258.582L692.346 308.018C691.636 308.864 690.374 308.974 689.528 308.264L386.262 53.7857C385.416 53.0756 385.306 51.814 386.016 50.9679L427.504 1.53188Z" fill="#004F82"/>
<path d="M720.188 258.358L430.095 14.9403L399.665 51.2049L689.759 294.622L720.188 258.358Z" fill="#004F82"/>
<path d="M394.69 51.64L690.19 299.59L725.16 257.91L429.66 9.96L394.69 51.64ZM592 207.98L572.22 191.38L614.93 174.65L634.71 191.25L592 207.98ZM661.65 213.85L682.06 230.98L639.35 247.71L618.94 230.58L661.65 213.85ZM545.28 168.78L524.87 151.65L567.58 134.92L587.99 152.05L545.28 168.78ZM497.93 129.05L477.83 112.19L520.54 95.46L540.64 112.32L497.93 129.05ZM450.9 89.58L430.49 72.45L473.2 55.72L493.61 72.85L450.9 89.58ZM430.54 19.92L446.27 33.12L406.35 48.76L430.55 19.93L430.54 19.92ZM689.33 289.64L666.3 270.31L709.01 253.58L715.21 258.79L689.33 289.64Z" fill="white"/>
<path d="M352.56 401.37C352.56 402.475 351.665 403.37 350.56 403.37H177.83C176.725 403.37 175.83 402.475 175.83 401.37V275.682C175.83 274.947 176.232 274.272 176.878 273.923L263.248 227.165C263.842 226.844 264.558 226.844 265.152 227.166L351.512 273.923C352.158 274.272 352.56 274.947 352.56 275.681V401.37Z" fill="white" stroke="#004F82" stroke-width="8" stroke-miterlimit="10"/>
<path d="M564.4 401.37C564.4 402.475 563.505 403.37 562.4 403.37H389.67C388.565 403.37 387.67 402.475 387.67 401.37V275.681C387.67 274.947 388.072 274.272 388.718 273.923L475.078 227.166C475.672 226.844 476.388 226.844 476.982 227.165L563.352 273.923C563.998 274.272 564.4 274.947 564.4 275.682V401.37Z" fill="white" stroke="#004F82" stroke-width="8" stroke-miterlimit="10"/>
<path d="M634.821 229.962L659.839 254.98L684.856 229.962L659.839 204.945L634.821 229.962Z" fill="white"/>
<path d="M49.9124 229.973L74.9298 254.991L99.9473 229.973L74.9298 204.956L49.9124 229.973Z" fill="white"/>
<path d="M458.59 488.23C458.59 489.335 457.695 490.23 456.59 490.23H283.87C282.765 490.23 281.87 489.335 281.87 488.23V362.541C281.87 361.807 282.272 361.132 282.918 360.783L369.278 314.016C369.872 313.694 370.588 313.694 371.182 314.016L457.542 360.783C458.188 361.132 458.59 361.807 458.59 362.541V488.23Z" fill="white" stroke="#004F82" stroke-width="8" stroke-miterlimit="10"/>
<path d="M281.87 488.23C281.87 489.335 280.975 490.23 279.87 490.23H164.83C163.725 490.23 162.83 489.335 162.83 488.23V404.612C162.83 403.877 163.232 403.202 163.878 402.853L221.398 371.715C221.992 371.394 222.708 371.394 223.302 371.715L280.822 402.853C281.468 403.202 281.87 403.877 281.87 404.612V488.23Z" fill="white" stroke="#004F82" stroke-width="8" stroke-miterlimit="10"/>
<path d="M578.12 488.23C578.12 489.335 577.225 490.23 576.12 490.23H461.08C459.975 490.23 459.08 489.335 459.08 488.23V404.612C459.08 403.877 459.482 403.202 460.128 402.853L517.648 371.715C518.242 371.394 518.958 371.394 519.552 371.715L577.072 402.853C577.718 403.202 578.12 403.877 578.12 404.612V488.23Z" fill="white" stroke="#004F82" stroke-width="8" stroke-miterlimit="10"/>
<path d="M620.79 490.53H698.9C700.005 490.53 700.9 489.635 700.9 488.53V164.09C700.9 162.985 700.005 162.09 698.9 162.09H620.79C619.685 162.09 618.79 162.985 618.79 164.09V488.53C618.79 489.635 619.685 490.53 620.79 490.53Z" fill="white" stroke="#004F82" stroke-width="8" stroke-miterlimit="10"/>
<path d="M113.98 162.09H35.87C34.7654 162.09 33.87 162.985 33.87 164.09V488.53C33.87 489.635 34.7654 490.53 35.87 490.53H113.98C115.085 490.53 115.98 489.635 115.98 488.53V164.09C115.98 162.985 115.085 162.09 113.98 162.09Z" fill="white" stroke="#004F82" stroke-width="9" stroke-miterlimit="10"/>
<path d="M74.9302 193.93L57.2596 211.6L74.9302 229.271L92.6008 211.6L74.9302 193.93Z" fill="#004F82"/>
<path d="M264.196 261.641L242.99 282.848L264.196 304.054L285.402 282.848L264.196 261.641Z" fill="#004F82"/>
<path d="M222.35 398.021L204.679 415.692L222.35 433.363L240.02 415.692L222.35 398.021Z" fill="#004F82"/>
<path d="M476.029 261.638L454.823 282.844L476.029 304.05L497.235 282.844L476.029 261.638Z" fill="#004F82"/>
<path d="M371.663 343.773L350.457 364.979L371.663 386.186L392.869 364.979L371.663 343.773Z" fill="#004F82"/>
<path d="M518.113 398.028L500.443 415.698L518.113 433.369L535.784 415.698L518.113 398.028Z" fill="#004F82"/>
<path d="M662.318 193.922L644.647 211.593L662.318 229.263L679.988 211.593L662.318 193.922Z" fill="#004F82"/>
</g>
<defs>
<clipPath id="clip0_37_197">
<rect width="735.12" height="496" fill="white"/>
</clipPath>
</defs>
</svg>
