<svg width="304" height="58" viewBox="0 0 304 58" fill="none" xmlns="http://www.w3.org/2000/svg">
<g clip-path="url(#clip0_455_3995)">
<mask id="mask0_455_3995" style="mask-type:luminance" maskUnits="userSpaceOnUse" x="0" y="0" width="86" height="58">
<path d="M85.8972 0H0V57.8866H85.8972V0Z" fill="white"/>
</mask>
<g mask="url(#mask0_455_3995)">
<path d="M35.794 0L0 30.0583L5.14831 36.1974L40.9423 6.13911L35.794 0Z" fill="#004F82"/>
<path d="M5.30023 34.4511L39.1971 5.98696L35.6414 1.74634L1.74461 30.2104L5.30023 34.4511Z" fill="#004F82"/>
<path d="M35.6923 1.16467L1.1638 30.16L5.24998 35.0339L39.7785 6.03854L35.6923 1.16467ZM11.7327 22.3627L14.0439 20.4216L19.0345 22.3779L16.7233 24.3191L11.7327 22.3627ZM13.5766 26.9618L11.1917 28.9649L6.20112 27.0086L8.58598 25.0055L13.5766 26.9618ZM17.1918 17.7789L19.5767 15.7758L24.5673 17.7321L22.1824 19.7352L17.1918 17.7789ZM22.7246 13.133L25.0732 11.1615L30.0638 13.1178L27.7151 15.0893L22.7246 13.133ZM28.2199 8.51758L30.6048 6.51447L35.5954 8.4708L33.2105 10.4739L28.2199 8.51758ZM38.4184 5.69943L33.7538 3.87056L35.5919 2.32701L38.4196 5.69826L38.4184 5.69943ZM2.32761 30.2617L3.05207 29.6525L8.04264 31.6088L5.35163 33.8692L2.32761 30.2617Z" fill="#F3FAFF"/>
<path d="M50.1032 0L85.8972 30.0583L80.7489 36.1974L44.9549 6.13911L50.1032 0Z" fill="#004F82"/>
<path d="M84.1524 30.2112L50.2557 1.74707L46.7 5.98769L80.5968 34.4518L84.1524 30.2112Z" fill="#004F82"/>
<path d="M46.1187 6.03854L80.6472 35.0327L84.7334 30.1588L50.2048 1.16467L46.1187 6.03854ZM69.1739 24.3202L66.8627 22.3791L71.8532 20.4228L74.1645 22.3639L69.1739 24.3202ZM77.3124 25.0067L79.6972 27.0098L74.7067 28.9661L72.3218 26.963L77.3124 25.0067ZM63.7148 19.7364L61.3299 17.7333L66.3205 15.7769L68.7053 17.78L63.7148 19.7364ZM58.182 15.0905L55.8334 13.119L60.824 11.1627L63.1726 13.1342L58.182 15.0905ZM52.6867 10.4751L50.3018 8.47197L55.2924 6.51564L57.6773 8.51875L52.6867 10.4751ZM50.3077 2.32935L52.1457 3.8729L47.4811 5.70177L50.3088 2.33052L50.3077 2.32935ZM80.5467 33.8692L77.8557 31.6088L82.8463 29.6525L83.5707 30.2617L80.5467 33.8692Z" fill="#F3FAFF"/>
<path d="M41.1959 47.1683H20.5453V32.0976L30.8712 26.5034L41.1959 32.0976V47.1683Z" fill="#F3FAFF" stroke="#004F82" stroke-width="2" stroke-miterlimit="10"/>
<path d="M65.9489 47.1683H45.2984V32.0976L55.6231 26.5034L65.9489 32.0976V47.1683Z" fill="#F3FAFF" stroke="#004F82" stroke-width="2" stroke-miterlimit="10"/>
<path d="M74.1775 26.8907L77.1008 29.8162L80.0239 26.8907L77.1008 23.9653L74.1775 26.8907Z" fill="#004F82"/>
<path d="M5.83217 26.8921L8.7554 29.8175L11.6786 26.8921L8.7554 23.9667L5.83217 26.8921Z" fill="#004F82"/>
<path d="M53.5852 57.3253H32.9359V42.2547L43.2606 36.6593L53.5852 42.2547V57.3253Z" fill="#F3FAFF" stroke="#004F82" stroke-width="2" stroke-miterlimit="10"/>
<path d="M32.9359 57.3253H19.0263V47.1742L25.9811 43.4065L32.9359 47.1742V57.3253Z" fill="#F3FAFF" stroke="#004F82" stroke-width="2" stroke-miterlimit="10"/>
<path d="M67.5521 57.3253H53.6425V47.1742L60.5973 43.4065L67.5521 47.1742V57.3253Z" fill="#F3FAFF" stroke="#004F82" stroke-width="2" stroke-miterlimit="10"/>
<path d="M72.3043 57.3604H81.8986V18.9541H72.3043V57.3604Z" fill="#F3FAFF" stroke="#004F82" stroke-width="2" stroke-miterlimit="10"/>
<path d="M13.552 18.9541H3.95764V57.3604H13.552V18.9541Z" fill="#F3FAFF" stroke="#004F82" stroke-width="2" stroke-miterlimit="10"/>
<path d="M8.75541 22.6772L6.69064 24.7435L8.75541 26.8099L10.8202 24.7435L8.75541 22.6772Z" fill="#004F82"/>
<path d="M30.8707 30.5951L28.3929 33.0749L30.8707 35.5547L33.3486 33.0749L30.8707 30.5951Z" fill="#004F82"/>
<path d="M25.9811 46.5427L23.9163 48.6091L25.9811 50.6755L28.0458 48.6091L25.9811 46.5427Z" fill="#004F82"/>
<path d="M55.623 30.5947L53.1451 33.0745L55.623 35.5542L58.1008 33.0745L55.623 30.5947Z" fill="#004F82"/>
<path d="M43.428 40.1992L40.9501 42.679L43.428 45.1588L45.9059 42.679L43.428 40.1992Z" fill="#004F82"/>
<path d="M60.5404 46.5436L58.4757 48.6098L60.5404 50.6762L62.6052 48.6098L60.5404 46.5436Z" fill="#004F82"/>
<path d="M77.3904 22.6764L75.3256 24.7428L77.3904 26.809L79.4551 24.7428L77.3904 22.6764Z" fill="#004F82"/>
</g>
</g>
<path d="M98.56 54C98.208 54 97.92 53.888 97.696 53.664C97.472 53.44 97.36 53.152 97.36 52.8V21.6C97.36 21.248 97.472 20.96 97.696 20.736C97.92 20.512 98.208 20.4 98.56 20.4H112C114.656 20.4 116.96 20.816 118.912 21.648C120.896 22.448 122.432 23.664 123.52 25.296C124.64 26.928 125.2 28.992 125.2 31.488C125.2 33.952 124.64 35.984 123.52 37.584C122.432 39.184 120.896 40.368 118.912 41.136C116.96 41.904 114.656 42.288 112 42.288H106.288V52.8C106.288 53.152 106.16 53.44 105.904 53.664C105.68 53.888 105.392 54 105.04 54H98.56ZM106.144 35.664H111.76C113.136 35.664 114.224 35.312 115.024 34.608C115.856 33.904 116.272 32.832 116.272 31.392C116.272 30.176 115.92 29.152 115.216 28.32C114.512 27.488 113.36 27.072 111.76 27.072H106.144V35.664ZM136.195 54.48C134.467 54.48 132.915 54.16 131.539 53.52C130.195 52.848 129.123 51.952 128.323 50.832C127.523 49.712 127.123 48.448 127.123 47.04C127.123 44.768 128.051 42.976 129.907 41.664C131.763 40.32 134.227 39.408 137.299 38.928L143.299 38.016V37.344C143.299 36.192 143.059 35.312 142.579 34.704C142.099 34.096 141.219 33.792 139.939 33.792C139.043 33.792 138.307 33.968 137.731 34.32C137.187 34.672 136.755 35.152 136.435 35.76C136.147 36.176 135.747 36.384 135.235 36.384H129.859C129.507 36.384 129.235 36.288 129.043 36.096C128.851 35.872 128.771 35.616 128.803 35.328C128.803 34.752 129.011 34.096 129.427 33.36C129.875 32.592 130.547 31.84 131.443 31.104C132.339 30.368 133.491 29.76 134.899 29.28C136.307 28.8 138.003 28.56 139.987 28.56C142.067 28.56 143.843 28.8 145.315 29.28C146.787 29.76 147.971 30.432 148.867 31.296C149.795 32.16 150.483 33.184 150.931 34.368C151.379 35.52 151.603 36.8 151.603 38.208V52.8C151.603 53.152 151.475 53.44 151.219 53.664C150.995 53.888 150.723 54 150.403 54H144.835C144.483 54 144.195 53.888 143.971 53.664C143.747 53.44 143.635 53.152 143.635 52.8V51.12C143.219 51.728 142.659 52.288 141.955 52.8C141.251 53.312 140.419 53.712 139.459 54C138.531 54.32 137.443 54.48 136.195 54.48ZM138.451 49.008C139.379 49.008 140.211 48.816 140.947 48.432C141.715 48.016 142.307 47.392 142.723 46.56C143.171 45.696 143.395 44.624 143.395 43.344V42.672L139.315 43.392C137.811 43.648 136.707 44.048 136.003 44.592C135.331 45.104 134.995 45.712 134.995 46.416C134.995 46.96 135.155 47.424 135.475 47.808C135.795 48.192 136.211 48.496 136.723 48.72C137.235 48.912 137.811 49.008 138.451 49.008ZM167.292 54.48C165.212 54.48 163.436 54.256 161.964 53.808C160.524 53.328 159.34 52.752 158.412 52.08C157.516 51.408 156.844 50.72 156.396 50.016C155.948 49.28 155.708 48.656 155.676 48.144C155.644 47.792 155.756 47.504 156.012 47.28C156.268 47.024 156.54 46.896 156.828 46.896H162.3C162.396 46.896 162.476 46.912 162.54 46.944C162.604 46.976 162.7 47.04 162.828 47.136C163.244 47.36 163.66 47.648 164.076 48C164.492 48.32 164.972 48.608 165.516 48.864C166.06 49.12 166.716 49.248 167.484 49.248C168.38 49.248 169.132 49.072 169.74 48.72C170.348 48.368 170.652 47.84 170.652 47.136C170.652 46.624 170.508 46.208 170.22 45.888C169.932 45.536 169.34 45.2 168.444 44.88C167.58 44.56 166.268 44.24 164.508 43.92C162.844 43.536 161.388 43.04 160.14 42.432C158.892 41.792 157.932 40.976 157.26 39.984C156.588 38.96 156.252 37.728 156.252 36.288C156.252 35.008 156.668 33.776 157.5 32.592C158.332 31.408 159.548 30.448 161.148 29.712C162.748 28.944 164.716 28.56 167.052 28.56C168.908 28.56 170.508 28.784 171.852 29.232C173.228 29.648 174.38 30.192 175.308 30.864C176.268 31.536 176.988 32.224 177.468 32.928C177.948 33.632 178.204 34.272 178.236 34.848C178.268 35.168 178.172 35.456 177.948 35.712C177.724 35.936 177.468 36.048 177.18 36.048H172.188C172.06 36.048 171.932 36.032 171.804 36C171.676 35.936 171.564 35.872 171.468 35.808C171.084 35.616 170.7 35.36 170.316 35.04C169.932 34.72 169.484 34.432 168.972 34.176C168.46 33.92 167.82 33.792 167.052 33.792C166.188 33.792 165.516 33.984 165.036 34.368C164.556 34.752 164.316 35.248 164.316 35.856C164.316 36.272 164.444 36.656 164.7 37.008C164.988 37.36 165.548 37.68 166.38 37.968C167.244 38.256 168.572 38.576 170.364 38.928C172.572 39.28 174.332 39.856 175.644 40.656C176.956 41.424 177.884 42.336 178.427 43.392C178.972 44.416 179.244 45.504 179.244 46.656C179.244 48.192 178.78 49.552 177.852 50.736C176.956 51.92 175.612 52.848 173.82 53.52C172.028 54.16 169.852 54.48 167.292 54.48ZM191.039 54.48C189.311 54.48 187.759 54.16 186.383 53.52C185.039 52.848 183.967 51.952 183.167 50.832C182.367 49.712 181.967 48.448 181.967 47.04C181.967 44.768 182.895 42.976 184.751 41.664C186.607 40.32 189.071 39.408 192.143 38.928L198.143 38.016V37.344C198.143 36.192 197.903 35.312 197.423 34.704C196.943 34.096 196.063 33.792 194.783 33.792C193.887 33.792 193.151 33.968 192.575 34.32C192.031 34.672 191.599 35.152 191.279 35.76C190.991 36.176 190.591 36.384 190.079 36.384H184.703C184.351 36.384 184.079 36.288 183.887 36.096C183.695 35.872 183.615 35.616 183.647 35.328C183.647 34.752 183.855 34.096 184.271 33.36C184.719 32.592 185.391 31.84 186.287 31.104C187.183 30.368 188.335 29.76 189.743 29.28C191.151 28.8 192.847 28.56 194.831 28.56C196.911 28.56 198.687 28.8 200.159 29.28C201.631 29.76 202.815 30.432 203.711 31.296C204.639 32.16 205.327 33.184 205.775 34.368C206.223 35.52 206.447 36.8 206.447 38.208V52.8C206.447 53.152 206.319 53.44 206.063 53.664C205.839 53.888 205.567 54 205.247 54H199.679C199.327 54 199.039 53.888 198.815 53.664C198.591 53.44 198.479 53.152 198.479 52.8V51.12C198.063 51.728 197.503 52.288 196.799 52.8C196.095 53.312 195.263 53.712 194.303 54C193.375 54.32 192.287 54.48 191.039 54.48ZM193.295 49.008C194.223 49.008 195.055 48.816 195.791 48.432C196.559 48.016 197.151 47.392 197.567 46.56C198.015 45.696 198.239 44.624 198.239 43.344V42.672L194.159 43.392C192.655 43.648 191.551 44.048 190.847 44.592C190.175 45.104 189.839 45.712 189.839 46.416C189.839 46.96 189.999 47.424 190.319 47.808C190.639 48.192 191.055 48.496 191.567 48.72C192.079 48.912 192.655 49.008 193.295 49.008ZM221.175 54.48C219.639 54.48 218.247 54.24 216.999 53.76C215.783 53.248 214.727 52.512 213.831 51.552C212.967 50.56 212.295 49.376 211.815 48C211.335 46.592 211.063 44.992 210.999 43.2C210.967 42.56 210.951 42 210.951 41.52C210.951 41.008 210.967 40.448 210.999 39.84C211.063 38.112 211.335 36.56 211.815 35.184C212.295 33.808 212.967 32.624 213.831 31.632C214.695 30.64 215.751 29.888 216.999 29.376C218.247 28.832 219.639 28.56 221.175 28.56C222.775 28.56 224.151 28.832 225.303 29.376C226.455 29.888 227.431 30.56 228.231 31.392V21.12C228.231 20.768 228.343 20.48 228.567 20.256C228.791 20.032 229.079 19.92 229.431 19.92H235.287C235.607 19.92 235.879 20.032 236.103 20.256C236.359 20.48 236.487 20.768 236.487 21.12V52.8C236.487 53.152 236.359 53.44 236.103 53.664C235.879 53.888 235.607 54 235.287 54H229.863C229.511 54 229.223 53.888 228.999 53.664C228.775 53.44 228.663 53.152 228.663 52.8V51.264C227.895 52.192 226.903 52.96 225.687 53.568C224.471 54.176 222.967 54.48 221.175 54.48ZM223.767 48.048C224.855 48.048 225.703 47.824 226.311 47.376C226.951 46.896 227.415 46.288 227.703 45.552C228.023 44.816 228.199 44.016 228.231 43.152C228.263 42.512 228.279 41.904 228.279 41.328C228.279 40.752 228.263 40.16 228.231 39.552C228.199 38.752 228.023 38.016 227.703 37.344C227.383 36.64 226.903 36.08 226.263 35.664C225.623 35.216 224.791 34.992 223.767 34.992C222.711 34.992 221.863 35.216 221.223 35.664C220.615 36.112 220.183 36.72 219.927 37.488C219.671 38.256 219.511 39.104 219.447 40.032C219.351 41.024 219.351 42.016 219.447 43.008C219.511 43.936 219.671 44.784 219.927 45.552C220.183 46.32 220.615 46.928 221.223 47.376C221.863 47.824 222.711 48.048 223.767 48.048ZM243.345 54C242.993 54 242.705 53.888 242.48 53.664C242.257 53.44 242.145 53.152 242.145 52.8V30.24C242.145 29.888 242.257 29.6 242.48 29.376C242.705 29.152 242.993 29.04 243.345 29.04H249.009C249.329 29.04 249.601 29.152 249.825 29.376C250.081 29.6 250.209 29.888 250.209 30.24V52.8C250.209 53.152 250.081 53.44 249.825 53.664C249.601 53.888 249.329 54 249.009 54H243.345ZM243.297 25.44C242.945 25.44 242.657 25.328 242.433 25.104C242.209 24.88 242.097 24.592 242.097 24.24V19.968C242.097 19.616 242.209 19.328 242.433 19.104C242.657 18.848 242.945 18.72 243.297 18.72H249.009C249.361 18.72 249.649 18.848 249.873 19.104C250.129 19.328 250.257 19.616 250.257 19.968V24.24C250.257 24.592 250.129 24.88 249.873 25.104C249.649 25.328 249.361 25.44 249.009 25.44H243.297ZM268.6 54C266.552 54 264.776 53.68 263.272 53.04C261.8 52.368 260.664 51.344 259.864 49.968C259.064 48.56 258.664 46.752 258.664 44.544V35.328H254.92C254.568 35.328 254.264 35.216 254.008 34.992C253.784 34.768 253.672 34.48 253.672 34.128V30.24C253.672 29.888 253.784 29.6 254.008 29.376C254.264 29.152 254.568 29.04 254.92 29.04H258.664V21.12C258.664 20.768 258.776 20.48 259 20.256C259.256 20.032 259.544 19.92 259.864 19.92H265.432C265.784 19.92 266.072 20.032 266.296 20.256C266.52 20.48 266.632 20.768 266.632 21.12V29.04H272.632C272.984 29.04 273.272 29.152 273.496 29.376C273.72 29.6 273.832 29.888 273.832 30.24V34.128C273.832 34.48 273.72 34.768 273.496 34.992C273.272 35.216 272.984 35.328 272.632 35.328H266.632V43.872C266.632 44.96 266.84 45.824 267.256 46.464C267.672 47.104 268.376 47.424 269.368 47.424H273.064C273.416 47.424 273.704 47.536 273.928 47.76C274.152 47.984 274.264 48.272 274.264 48.624V52.8C274.264 53.152 274.152 53.44 273.928 53.664C273.704 53.888 273.416 54 273.064 54H268.6ZM285.726 54.48C283.998 54.48 282.446 54.16 281.07 53.52C279.726 52.848 278.654 51.952 277.854 50.832C277.054 49.712 276.654 48.448 276.654 47.04C276.654 44.768 277.582 42.976 279.438 41.664C281.294 40.32 283.758 39.408 286.83 38.928L292.83 38.016V37.344C292.83 36.192 292.59 35.312 292.11 34.704C291.63 34.096 290.75 33.792 289.47 33.792C288.574 33.792 287.838 33.968 287.262 34.32C286.718 34.672 286.286 35.152 285.966 35.76C285.678 36.176 285.278 36.384 284.766 36.384H279.39C279.038 36.384 278.766 36.288 278.574 36.096C278.382 35.872 278.302 35.616 278.334 35.328C278.334 34.752 278.542 34.096 278.958 33.36C279.406 32.592 280.078 31.84 280.974 31.104C281.87 30.368 283.022 29.76 284.43 29.28C285.838 28.8 287.534 28.56 289.518 28.56C291.598 28.56 293.374 28.8 294.846 29.28C296.318 29.76 297.502 30.432 298.398 31.296C299.326 32.16 300.014 33.184 300.462 34.368C300.91 35.52 301.134 36.8 301.134 38.208V52.8C301.134 53.152 301.006 53.44 300.75 53.664C300.526 53.888 300.254 54 299.934 54H294.366C294.014 54 293.726 53.888 293.502 53.664C293.278 53.44 293.166 53.152 293.166 52.8V51.12C292.75 51.728 292.19 52.288 291.486 52.8C290.782 53.312 289.95 53.712 288.99 54C288.062 54.32 286.974 54.48 285.726 54.48ZM287.982 49.008C288.91 49.008 289.742 48.816 290.478 48.432C291.246 48.016 291.838 47.392 292.254 46.56C292.702 45.696 292.926 44.624 292.926 43.344V42.672L288.846 43.392C287.342 43.648 286.238 44.048 285.534 44.592C284.862 45.104 284.526 45.712 284.526 46.416C284.526 46.96 284.686 47.424 285.006 47.808C285.326 48.192 285.742 48.496 286.254 48.72C286.766 48.912 287.342 49.008 287.982 49.008Z" fill="#004F82"/>
<defs>
<clipPath id="clip0_455_3995">
<rect width="86" height="58" fill="white"/>
</clipPath>
</defs>
</svg>
