<svg width="736" height="496" viewBox="0 0 736 496" fill="none" xmlns="http://www.w3.org/2000/svg">
<g clip-path="url(#clip0_878_13376)">
<mask id="mask0_878_13376" style="mask-type:luminance" maskUnits="userSpaceOnUse" x="0" y="0" width="736" height="496">
<path d="M735.56 0.0300293H0.439941V495.06H735.56V0.0300293Z" fill="white"/>
</mask>
<g mask="url(#mask0_878_13376)">
<path d="M306.77 0.0300293L0.439941 257.08L44.4999 309.58L350.83 52.53L306.77 0.0300293Z" fill="#003474"/>
<path d="M45.8001 294.646L335.894 51.2285L305.464 14.9639L15.3706 258.381L45.8001 294.646Z" fill="#003474"/>
<path d="M305.9 9.99005L10.3999 257.95L45.3699 299.63L340.87 51.6701L305.9 9.99005ZM100.85 191.27L120.63 174.67L163.34 191.4L143.56 208L100.85 191.27ZM116.63 230.6L96.2199 247.73L53.5099 231L73.9199 213.87L116.63 230.6ZM147.57 152.07L167.98 134.94L210.69 151.67L190.28 168.8L147.57 152.07ZM194.92 112.34L215.02 95.48L257.73 112.21L237.63 129.07L194.92 112.34ZM241.95 72.87L262.36 55.7401L305.07 72.4701L284.66 89.6001L241.95 72.87ZM329.23 48.7701L289.31 33.1301L305.04 19.9301L329.24 48.7601L329.23 48.7701ZM20.3599 258.82L26.5599 253.61L69.2699 270.34L46.2399 289.67L20.3599 258.82Z" fill="white"/>
<path d="M429.23 0.0300293L735.56 257.08L691.5 309.58L385.17 52.53L429.23 0.0300293Z" fill="#003474"/>
<path d="M720.628 258.388L430.535 14.9703L400.105 51.2349L690.199 294.652L720.628 258.388Z" fill="#003474"/>
<path d="M395.13 51.6701L690.63 299.62L725.6 257.94L430.1 9.99005L395.13 51.6701ZM592.44 208.01L572.66 191.41L615.37 174.68L635.15 191.28L592.44 208.01ZM662.09 213.88L682.5 231.01L639.79 247.74L619.38 230.61L662.09 213.88ZM545.72 168.81L525.31 151.68L568.02 134.95L588.43 152.08L545.72 168.81ZM498.37 129.08L478.27 112.22L520.98 95.4901L541.08 112.35L498.37 129.08ZM451.34 89.6101L430.93 72.48L473.64 55.7501L494.05 72.8801L451.34 89.6101ZM430.98 19.9501L446.71 33.1501L406.79 48.7901L430.99 19.9601L430.98 19.9501ZM689.77 289.67L666.74 270.34L709.45 253.61L715.65 258.82L689.77 289.67Z" fill="white"/>
<path d="M353 403.4H176.27V274.52L264.64 226.68L353 274.52V403.4Z" fill="white" stroke="#003474" stroke-width="8" stroke-miterlimit="10"/>
<path d="M564.84 403.4H388.11V274.52L476.47 226.68L564.84 274.52V403.4Z" fill="white" stroke="#003474" stroke-width="8" stroke-miterlimit="10"/>
<path d="M635.261 229.992L660.279 255.01L685.296 229.992L660.279 204.975L635.261 229.992Z" fill="#003474"/>
<path d="M50.3523 230.003L75.3697 255.021L100.387 230.003L75.3697 204.986L50.3523 230.003Z" fill="#003474"/>
<path d="M459.03 490.26H282.31V361.38L370.67 313.53L459.03 361.38V490.26Z" fill="white" stroke="#003474" stroke-width="8" stroke-miterlimit="10"/>
<path d="M282.31 490.26H163.27V403.45L222.79 371.23L282.31 403.45V490.26Z" fill="white" stroke="#003474" stroke-width="8" stroke-miterlimit="10"/>
<path d="M578.56 490.26H459.52V403.45L519.04 371.23L578.56 403.45V490.26Z" fill="white" stroke="#003474" stroke-width="8" stroke-miterlimit="10"/>
<path d="M619.23 490.56H701.34V162.12H619.23V490.56Z" fill="white" stroke="#003474" stroke-width="8" stroke-miterlimit="10"/>
<path d="M116.42 162.12H34.3099V490.56H116.42V162.12Z" fill="white" stroke="#003474" stroke-width="9" stroke-miterlimit="10"/>
<path d="M75.3702 193.96L57.6996 211.63L75.3702 229.301L93.0408 211.63L75.3702 193.96Z" fill="#003474"/>
<path d="M264.636 261.671L243.43 282.878L264.636 304.084L285.842 282.878L264.636 261.671Z" fill="#003474"/>
<path d="M222.79 398.051L205.119 415.722L222.79 433.393L240.46 415.722L222.79 398.051Z" fill="#003474"/>
<path d="M476.469 261.668L455.263 282.874L476.469 304.08L497.675 282.874L476.469 261.668Z" fill="#003474"/>
<path d="M372.103 343.803L350.897 365.009L372.103 386.216L393.309 365.009L372.103 343.803Z" fill="#003474"/>
<path d="M518.553 398.058L500.883 415.728L518.553 433.399L536.224 415.728L518.553 398.058Z" fill="#003474"/>
<path d="M662.758 193.952L645.087 211.623L662.758 229.293L680.428 211.623L662.758 193.952Z" fill="#003474"/>
</g>
</g>
<defs>
<clipPath id="clip0_878_13376">
<rect width="736" height="496" fill="white"/>
</clipPath>
</defs>
</svg>
