<svg width="3091" height="496" viewBox="0 0 3091 496" fill="none" xmlns="http://www.w3.org/2000/svg">
<g clip-path="url(#clip0_831_15161)">
<mask id="mask0_831_15161" style="mask-type:luminance" maskUnits="userSpaceOnUse" x="0" y="0" width="736" height="496">
<path d="M735.12 0H0V495.03H735.12V0Z" fill="white"/>
</mask>
<g mask="url(#mask0_831_15161)">
<path d="M306.33 0L0 257.05L44.06 309.55L350.39 52.5L306.33 0Z" fill="#003474"/>
<path d="M45.3602 294.616L335.454 51.1984L305.024 14.9338L14.9307 258.351L45.3602 294.616Z" fill="#003474"/>
<path d="M305.46 9.95996L9.95996 257.92L44.93 299.6L340.43 51.64L305.46 9.95996ZM100.41 191.24L120.19 174.64L162.9 191.37L143.12 207.97L100.41 191.24ZM116.19 230.57L95.78 247.7L53.07 230.97L73.48 213.84L116.19 230.57ZM147.13 152.04L167.54 134.91L210.25 151.64L189.84 168.77L147.13 152.04ZM194.48 112.31L214.58 95.45L257.29 112.18L237.19 129.04L194.48 112.31ZM241.51 72.84L261.92 55.71L304.63 72.44L284.22 89.57L241.51 72.84ZM328.79 48.74L288.87 33.1L304.6 19.9L328.8 48.73L328.79 48.74ZM19.92 258.79L26.12 253.58L68.83 270.31L45.8 289.64L19.92 258.79Z" fill="white"/>
<path d="M428.79 0L735.12 257.05L691.06 309.55L384.73 52.5L428.79 0Z" fill="#003474"/>
<path d="M720.188 258.358L430.095 14.9403L399.665 51.2049L689.759 294.622L720.188 258.358Z" fill="#003474"/>
<path d="M394.69 51.64L690.19 299.59L725.16 257.91L429.66 9.95996L394.69 51.64ZM592 207.98L572.22 191.38L614.93 174.65L634.71 191.25L592 207.98ZM661.65 213.85L682.06 230.98L639.35 247.71L618.94 230.58L661.65 213.85ZM545.28 168.78L524.87 151.65L567.58 134.92L587.99 152.05L545.28 168.78ZM497.93 129.05L477.83 112.19L520.54 95.46L540.64 112.32L497.93 129.05ZM450.9 89.58L430.49 72.45L473.2 55.72L493.61 72.85L450.9 89.58ZM430.54 19.92L446.27 33.12L406.35 48.76L430.55 19.93L430.54 19.92ZM689.33 289.64L666.3 270.31L709.01 253.58L715.21 258.79L689.33 289.64Z" fill="white"/>
<path d="M352.56 403.37H175.83V274.49L264.2 226.65L352.56 274.49V403.37Z" fill="white" stroke="#003474" stroke-width="8" stroke-miterlimit="10"/>
<path d="M564.4 403.37H387.67V274.49L476.03 226.65L564.4 274.49V403.37Z" fill="white" stroke="#003474" stroke-width="8" stroke-miterlimit="10"/>
<path d="M634.821 229.962L659.839 254.98L684.856 229.962L659.839 204.945L634.821 229.962Z" fill="#003474"/>
<path d="M49.9124 229.973L74.9298 254.991L99.9473 229.973L74.9298 204.956L49.9124 229.973Z" fill="#003474"/>
<path d="M458.59 490.23H281.87V361.35L370.23 313.5L458.59 361.35V490.23Z" fill="white" stroke="#003474" stroke-width="8" stroke-miterlimit="10"/>
<path d="M281.87 490.23H162.83V403.42L222.35 371.2L281.87 403.42V490.23Z" fill="white" stroke="#003474" stroke-width="8" stroke-miterlimit="10"/>
<path d="M578.12 490.23H459.08V403.42L518.6 371.2L578.12 403.42V490.23Z" fill="white" stroke="#003474" stroke-width="8" stroke-miterlimit="10"/>
<path d="M618.79 490.53H700.9V162.09H618.79V490.53Z" fill="white" stroke="#003474" stroke-width="8" stroke-miterlimit="10"/>
<path d="M115.98 162.09H33.87V490.53H115.98V162.09Z" fill="white" stroke="#003474" stroke-width="9" stroke-miterlimit="10"/>
<path d="M74.9302 193.93L57.2596 211.6L74.9302 229.271L92.6008 211.6L74.9302 193.93Z" fill="#003474"/>
<path d="M264.196 261.641L242.99 282.848L264.196 304.054L285.402 282.848L264.196 261.641Z" fill="#003474"/>
<path d="M222.35 398.021L204.679 415.692L222.35 433.363L240.02 415.692L222.35 398.021Z" fill="#003474"/>
<path d="M476.029 261.638L454.823 282.844L476.029 304.05L497.235 282.844L476.029 261.638Z" fill="#003474"/>
<path d="M371.663 343.773L350.457 364.979L371.663 386.186L392.869 364.979L371.663 343.773Z" fill="#003474"/>
<path d="M518.113 398.028L500.443 415.698L518.113 433.369L535.784 415.698L518.113 398.028Z" fill="#003474"/>
<path d="M662.318 193.922L644.647 211.593L662.318 229.263L679.988 211.593L662.318 193.922Z" fill="#003474"/>
</g>
<path d="M791.822 490.35C788.39 490.35 785.581 489.256 783.397 487.073C781.212 484.89 780.12 482.082 780.12 478.648V174.412C780.12 170.978 781.212 168.17 783.397 165.987C785.581 163.804 788.39 162.71 791.822 162.71H922.89C948.793 162.71 971.261 166.766 990.296 174.88C1009.65 182.68 1024.62 194.538 1035.23 210.452C1046.16 226.366 1051.62 246.492 1051.62 270.831C1051.62 294.859 1046.16 314.671 1035.23 330.275C1024.62 345.878 1009.65 357.422 990.296 364.911C971.261 372.399 948.793 376.144 922.89 376.144H867.186V478.648C867.186 482.082 865.938 484.89 863.442 487.073C861.257 489.256 858.448 490.35 855.016 490.35H791.822ZM865.782 311.552H920.55C933.968 311.552 944.58 308.119 952.38 301.255C960.495 294.391 964.551 283.937 964.551 269.895C964.551 258.037 961.117 248.054 954.253 239.94C947.388 231.825 936.153 227.77 920.55 227.77H865.782V311.552ZM1054.87 490.35C1052.37 490.35 1050.03 489.413 1047.85 487.541C1045.98 485.358 1045.04 483.018 1045.04 480.52C1045.04 478.959 1045.2 477.555 1045.51 476.308L1155.51 175.816C1156.45 172.382 1158.32 169.42 1161.13 166.923C1164.25 164.115 1168.46 162.71 1173.77 162.71H1243.05C1248.35 162.71 1252.41 164.115 1255.22 166.923C1258.34 169.42 1260.37 172.382 1261.3 175.816L1370.84 476.308C1371.46 477.555 1371.78 478.959 1371.78 480.52C1371.78 483.018 1370.68 485.358 1368.5 487.541C1366.63 489.413 1364.29 490.35 1361.48 490.35H1303.9C1299.22 490.35 1295.63 489.256 1293.13 487.073C1290.95 484.575 1289.55 482.392 1288.92 480.52L1270.67 432.779H1145.68L1127.9 480.52C1127.27 482.392 1125.87 484.575 1123.68 487.073C1121.5 489.256 1117.75 490.35 1112.45 490.35H1054.87ZM1164.88 365.379H1251.94L1207.94 241.812L1164.88 365.379ZM1525.82 495.03C1494.61 495.03 1468.71 490.66 1448.11 481.925C1427.52 472.874 1411.91 461.173 1401.3 446.82C1390.69 432.468 1385.08 417.175 1384.45 400.951C1384.45 398.453 1385.39 396.27 1387.26 394.398C1389.44 392.215 1391.94 391.122 1394.75 391.122H1453.73C1458.1 391.122 1461.38 391.901 1463.56 393.462C1466.06 395.023 1468.24 397.049 1470.11 399.547C1472.61 404.227 1476.04 408.75 1480.41 413.12C1485.09 417.49 1491.02 421.077 1498.2 423.886C1505.69 426.383 1514.89 427.63 1525.82 427.63C1543.91 427.63 1557.49 424.822 1566.54 419.205C1575.9 413.588 1580.58 405.942 1580.58 396.27C1580.58 389.407 1578.09 383.79 1573.09 379.42C1568.1 374.74 1559.99 370.685 1548.75 367.251C1537.83 363.506 1523.16 359.762 1504.75 356.018C1481.04 351.026 1460.75 344.627 1443.9 336.827C1427.36 328.713 1414.72 318.262 1405.98 305.467C1397.25 292.362 1392.88 276.137 1392.88 256.79C1392.88 237.757 1398.18 220.749 1408.79 205.772C1419.72 190.794 1434.85 179.093 1454.2 170.668C1473.55 162.243 1496.48 158.03 1523.01 158.03C1544.54 158.03 1563.42 160.838 1579.65 166.455C1596.19 172.072 1610.07 179.561 1621.31 188.922C1632.54 198.283 1640.97 208.269 1646.59 218.877C1652.51 229.174 1655.64 239.314 1655.95 249.301C1655.95 251.798 1655.01 254.139 1653.14 256.322C1651.27 258.194 1648.93 259.13 1646.12 259.13H1584.33C1580.89 259.13 1577.93 258.505 1575.43 257.258C1572.94 256.011 1570.75 253.981 1568.88 251.173C1567.01 244.309 1562.02 238.378 1553.9 233.387C1546.1 228.081 1535.8 225.43 1523.01 225.43C1509.28 225.43 1498.51 227.927 1490.71 232.919C1483.22 237.599 1479.47 244.931 1479.47 254.917C1479.47 261.159 1481.5 266.619 1485.56 271.299C1489.93 275.98 1496.95 280.035 1506.62 283.469C1516.61 286.902 1530.19 290.49 1547.35 294.234C1575.75 299.54 1598.68 306.246 1616.16 314.36C1633.64 322.16 1646.43 332.457 1654.54 345.252C1662.66 357.732 1666.71 373.493 1666.71 392.526C1666.71 413.746 1660.63 432.153 1648.46 447.756C1636.6 463.045 1620.06 474.746 1598.84 482.861C1577.62 490.975 1553.28 495.03 1525.82 495.03ZM1689.82 490.35C1687.33 490.35 1684.98 489.413 1682.8 487.541C1680.93 485.358 1679.99 483.018 1679.99 480.52C1679.99 478.959 1680.15 477.555 1680.46 476.308L1790.46 175.816C1791.4 172.382 1793.27 169.42 1796.08 166.923C1799.2 164.115 1803.41 162.71 1808.72 162.71H1878C1883.31 162.71 1887.36 164.115 1890.17 166.923C1893.29 169.42 1895.32 172.382 1896.25 175.816L2005.79 476.308C2006.42 477.555 2006.73 478.959 2006.73 480.52C2006.73 483.018 2005.63 485.358 2003.45 487.541C2001.58 489.413 1999.24 490.35 1996.43 490.35H1938.85C1934.17 490.35 1930.58 489.256 1928.09 487.073C1925.9 484.575 1924.5 482.392 1923.87 480.52L1905.62 432.779H1780.63L1762.85 480.52C1762.22 482.392 1760.82 484.575 1758.63 487.073C1756.45 489.256 1752.71 490.35 1747.4 490.35H1689.82ZM1799.83 365.379H1886.89L1842.89 241.812L1799.83 365.379ZM2055.32 490.35C2051.89 490.35 2049.08 489.256 2046.9 487.073C2044.72 484.89 2043.62 482.082 2043.62 478.648V174.412C2043.62 170.978 2044.72 168.17 2046.9 165.987C2049.08 163.804 2051.89 162.71 2055.32 162.71H2177.03C2207.61 162.71 2233.67 167.702 2255.2 177.688C2276.74 187.36 2293.28 201.716 2304.82 220.749C2316.37 239.472 2322.61 262.717 2323.55 290.49C2323.86 304.221 2324.01 316.233 2324.01 326.53C2324.01 336.827 2323.86 348.686 2323.55 362.102C2322.3 391.122 2316.06 415.15 2304.82 434.183C2293.9 453.216 2277.83 467.415 2256.61 476.776C2235.7 485.826 2209.95 490.35 2179.37 490.35H2055.32ZM2127.41 422.95H2177.03C2190.45 422.95 2201.53 420.92 2210.27 416.865C2219.32 412.495 2226.02 405.789 2230.39 396.738C2235.07 387.688 2237.57 375.833 2237.88 361.166C2238.51 352.116 2238.82 344.005 2238.82 336.827C2239.13 329.649 2239.13 322.475 2238.82 315.297C2238.82 308.119 2238.51 300.162 2237.88 291.426C2237.26 270.206 2231.64 254.76 2221.03 245.088C2210.73 235.102 2195.29 230.111 2174.69 230.111H2127.41V422.95ZM2390.4 490.35C2386.97 490.35 2384.16 489.256 2381.97 487.073C2379.79 484.89 2378.7 482.082 2378.7 478.648V174.412C2378.7 170.978 2379.79 168.17 2381.97 165.987C2384.16 163.804 2386.97 162.71 2390.4 162.71H2453.12C2456.56 162.71 2459.37 163.804 2461.55 165.987C2463.73 168.17 2464.83 170.978 2464.83 174.412V478.648C2464.83 482.082 2463.73 484.89 2461.55 487.073C2459.37 489.256 2456.56 490.35 2453.12 490.35H2390.4ZM2614.25 490.35C2610.82 490.35 2608.01 489.256 2605.83 487.073C2603.64 484.89 2602.55 482.082 2602.55 478.648V236.195H2519.23C2515.79 236.195 2512.99 235.102 2510.8 232.919C2508.62 230.421 2507.53 227.613 2507.53 224.494V174.412C2507.53 170.978 2508.62 168.17 2510.8 165.987C2512.99 163.804 2515.79 162.71 2519.23 162.71H2771.07C2774.5 162.71 2777.31 163.804 2779.49 165.987C2781.68 168.17 2782.77 170.978 2782.77 174.412V224.494C2782.77 227.613 2781.68 230.421 2779.49 232.919C2777.31 235.102 2774.5 236.195 2771.07 236.195H2687.74V478.648C2687.74 482.082 2686.65 484.89 2684.47 487.073C2682.28 489.256 2679.48 490.35 2676.04 490.35H2614.25ZM2773.22 490.35C2770.72 490.35 2768.38 489.413 2766.2 487.541C2764.32 485.358 2763.39 483.018 2763.39 480.52C2763.39 478.959 2763.54 477.555 2763.85 476.308L2873.86 175.816C2874.79 172.382 2876.67 169.42 2879.48 166.923C2882.59 164.115 2886.81 162.71 2892.11 162.71H2961.39C2966.7 162.71 2970.75 164.115 2973.56 166.923C2976.68 169.42 2978.71 172.382 2979.65 175.816L3089.18 476.308C3089.81 477.555 3090.12 478.959 3090.12 480.52C3090.12 483.018 3089.03 485.358 3086.84 487.541C3084.97 489.413 3082.63 490.35 3079.82 490.35H3022.25C3017.56 490.35 3013.98 489.256 3011.48 487.073C3009.3 484.575 3007.89 482.392 3007.27 480.52L2989.01 432.779H2864.03L2846.24 480.52C2845.61 482.392 2844.21 484.575 2842.03 487.073C2839.84 489.256 2836.1 490.35 2830.79 490.35H2773.22ZM2883.22 365.379H2970.29L2926.29 241.812L2883.22 365.379Z" fill="#003474"/>
</g>
<defs>
<clipPath id="clip0_831_15161">
<rect width="3090.12" height="495.03" fill="white"/>
</clipPath>
</defs>
</svg>
